<?xml version="1.0" encoding="UTF-8" standalone="no"?>
<svg
   xmlns:dc="http://purl.org/dc/elements/1.1/"
   xmlns:cc="http://creativecommons.org/ns#"
   xmlns:rdf="http://www.w3.org/1999/02/22-rdf-syntax-ns#"
   xmlns:svg="http://www.w3.org/2000/svg"
   xmlns="http://www.w3.org/2000/svg"
   xmlns:sodipodi="http://sodipodi.sourceforge.net/DTD/sodipodi-0.dtd"
   xmlns:inkscape="http://www.inkscape.org/namespaces/inkscape"
   version="1.1"
   x="0px"
   y="0px"
   viewBox="0 0 78.212868 78.300003"
   xml:space="preserve"
   id="svg26"
   sodipodi:docname="batiment.svg"
   inkscape:version="0.92.1 r15371"
   width="78.212868"
   height="78.300003"><metadata
     id="metadata32"><rdf:RDF><cc:Work
         rdf:about=""><dc:format>image/svg+xml</dc:format><dc:type
           rdf:resource="http://purl.org/dc/dcmitype/StillImage" /><dc:title></dc:title></cc:Work></rdf:RDF></metadata><defs
     id="defs30" /><sodipodi:namedview
     pagecolor="#ffffff"
     bordercolor="#666666"
     borderopacity="1"
     objecttolerance="10"
     gridtolerance="10"
     guidetolerance="10"
     inkscape:pageopacity="0"
     inkscape:pageshadow="2"
     inkscape:window-width="1920"
     inkscape:window-height="986"
     id="namedview28"
     showgrid="false"
     inkscape:zoom="2.36"
     inkscape:cx="38.4"
     inkscape:cy="39.7"
     inkscape:window-x="-11"
     inkscape:window-y="-11"
     inkscape:window-maximized="1"
     inkscape:current-layer="svg26"
     fit-margin-top="0"
     fit-margin-left="0"
     fit-margin-right="0"
     fit-margin-bottom="0" /><style
     type="text/css"
     id="style2">
	.st0{fill:none;stroke:#000000;stroke-width:2;stroke-linecap:round;stroke-linejoin:round;stroke-miterlimit:10;}
</style><path
     d="M 77.3,0 H 1 C 0.4,0 0,0.4 0,1 v 75.2 1.1 c 0,0.6 0.4,1 1,1 h 76.2 c 0.6,0 1,-0.4 1,-1 V 1 C 78.3,0.4 77.8,0 77.3,0 Z M 68.5,2 H 76 V 36 H 68.5 Z M 9.5,76.2 H 2 V 76.1 30.2 h 7.5 z m 0,-48 H 2 V 2 h 7.5 z m 9.5,48 H 11.5 V 68.7 H 19 Z m 0,-9.5 H 11.5 V 2 H 19 Z m 9.5,9.5 H 21 V 2 h 7.5 z m 9.5,0 H 30.5 V 52.5 H 38 Z M 38,50.5 H 30.5 V 2 H 38 Z m 9.5,25.7 H 40 V 2 h 7.5 z m 9.5,0 H 49.5 V 17.7 H 57 Z M 57,15.7 H 49.5 V 2 H 57 Z m 9.5,60.5 H 59 V 2 h 7.5 z m 2,0 V 38 H 76 v 38.2 c 0,0 0,0 0,0.1 h -7.5 z"
     id="path4"
     style="fill:#deaa87"
     inkscape:connector-curvature="0" /><circle
     cx="4.5000005"
     cy="26.199999"
     r="0.60000002"
     id="circle6" /><circle
     cx="7.1000009"
     cy="26.199999"
     r="0.60000002"
     id="circle8" /><circle
     cx="14"
     cy="64.400002"
     r="0.60000002"
     id="circle10" /><circle
     cx="16.6"
     cy="64.400002"
     r="0.60000002"
     id="circle12" /><circle
     cx="32.900002"
     cy="48.099998"
     r="0.60000002"
     id="circle14" /><circle
     cx="35.600002"
     cy="48.099998"
     r="0.60000002"
     id="circle16" /><circle
     cx="51.900002"
     cy="13.4"
     r="0.60000002"
     id="circle18" /><circle
     cx="54.599998"
     cy="13.4"
     r="0.60000002"
     id="circle20" /><circle
     cx="70.900002"
     cy="33.599998"
     r="0.60000002"
     id="circle22" /><circle
     cx="73.599998"
     cy="33.599998"
     r="0.60000002"
     id="circle24" /></svg>