<?xml version="1.0" encoding="UTF-8" standalone="no"?>
<svg
   xmlns:dc="http://purl.org/dc/elements/1.1/"
   xmlns:cc="http://creativecommons.org/ns#"
   xmlns:rdf="http://www.w3.org/1999/02/22-rdf-syntax-ns#"
   xmlns:svg="http://www.w3.org/2000/svg"
   xmlns="http://www.w3.org/2000/svg"
   xmlns:sodipodi="http://sodipodi.sourceforge.net/DTD/sodipodi-0.dtd"
   xmlns:inkscape="http://www.inkscape.org/namespaces/inkscape"
   xml:space="preserve"
   version="1.1"
   style="shape-rendering:geometricPrecision;text-rendering:geometricPrecision;image-rendering:optimizeQuality;"
   viewBox="0 0 292 256"
   x="0px"
   y="0px"
   fill-rule="evenodd"
   clip-rule="evenodd"
   id="svg10"
   sodipodi:docname="caprin.svg"
   inkscape:version="0.92.3 (2405546, 2018-03-11)"><metadata
     id="metadata14"><rdf:RDF><cc:Work
         rdf:about=""><dc:format>image/svg+xml</dc:format><dc:type
           rdf:resource="http://purl.org/dc/dcmitype/StillImage" /><dc:title></dc:title></cc:Work></rdf:RDF></metadata><sodipodi:namedview
     pagecolor="#ffffff"
     bordercolor="#666666"
     borderopacity="1"
     objecttolerance="10"
     gridtolerance="10"
     guidetolerance="10"
     inkscape:pageopacity="0"
     inkscape:pageshadow="2"
     inkscape:window-width="1600"
     inkscape:window-height="836"
     id="namedview12"
     showgrid="false"
     inkscape:zoom="0.921875"
     inkscape:cx="25.59322"
     inkscape:cy="128"
     inkscape:window-x="0"
     inkscape:window-y="27"
     inkscape:window-maximized="1"
     inkscape:current-layer="svg10" /><defs
     id="defs4"><style
       type="text/css"
       id="style2">
   
    .fil0 {fill:black}
   
  </style></defs><g
     id="g8"><path
       class="fil0"
       d="M199 256c1,-6 -6,-7 -8,-15 0,-22 -1,-40 5,-56 6,-16 8,-32 8,-51 1,7 2,10 1,20 26,-22 28,-50 37,-81 -3,-1 -5,-2 -8,-3 8,2 14,4 24,3 0,3 2,6 4,7 -1,13 4,5 6,18 6,-9 0,-12 3,-20 4,-7 4,-6 11,-5 8,0 13,-7 7,-15 -10,-10 -20,-20 -28,-31 -6,-17 -24,-32 -44,-25 -20,0 -21,5 -26,9 20,-7 34,-5 40,6 -8,6 -15,13 -16,21 2,0 5,0 7,0 -13,21 -24,33 -39,37 -76,26 -127,-28 -152,19 -27,2 -40,30 -25,38 0,-4 0,-7 2,-10 0,3 2,5 4,5 0,-3 -1,-5 0,-8 1,1 2,1 3,2 0,-9 5,-15 12,-19 -3,14 -4,28 2,41 14,26 -14,50 0,65 4,4 7,35 7,43 1,0 2,0 3,-1 0,3 -1,6 2,6 4,0 8,0 12,0 2,-7 -6,-5 -8,-13 0,-10 0,-31 1,-41 1,-6 5,-23 13,-19 -1,2 -5,10 0,22 2,5 7,36 7,43 1,0 2,0 3,0 0,3 -1,5 2,5 4,0 8,0 12,1 2,-8 -6,-6 -8,-13 0,-12 -3,-37 0,-44 8,-14 18,-19 31,-29 11,1 22,0 33,-1 9,26 17,44 12,81 1,0 2,0 4,0 -1,6 4,6 16,5 1,-6 -6,-7 -8,-15 0,-23 1,-47 3,-73 9,29 18,47 13,85 2,0 3,0 4,0 0,7 5,6 16,6zm68 -210c-1,-6 -8,-6 -11,-7 1,0 4,1 5,2 0,4 4,6 6,5zm-21 -28c-5,-6 -11,-11 -19,-13 5,-1 16,3 19,13z"
       id="path6" /></g></svg>