<?xml version="1.0" encoding="UTF-8" standalone="no"?>
<svg
   xmlns:dc="http://purl.org/dc/elements/1.1/"
   xmlns:cc="http://creativecommons.org/ns#"
   xmlns:rdf="http://www.w3.org/1999/02/22-rdf-syntax-ns#"
   xmlns:svg="http://www.w3.org/2000/svg"
   xmlns="http://www.w3.org/2000/svg"
   xmlns:sodipodi="http://sodipodi.sourceforge.net/DTD/sodipodi-0.dtd"
   xmlns:inkscape="http://www.inkscape.org/namespaces/inkscape"
   version="1.1"
   x="0px"
   y="0px"
   viewBox="0 0 65 65"
   enable-background="new 0 0 65 65"
   xml:space="preserve"
   id="svg4"
   sodipodi:docname="divise.svg"
   inkscape:version="0.92.3 (2405546, 2018-03-11)"><metadata
     id="metadata10"><rdf:RDF><cc:Work
         rdf:about=""><dc:format>image/svg+xml</dc:format><dc:type
           rdf:resource="http://purl.org/dc/dcmitype/StillImage" /><dc:title></dc:title></cc:Work></rdf:RDF></metadata><defs
     id="defs8" /><sodipodi:namedview
     pagecolor="#ffffff"
     bordercolor="#666666"
     borderopacity="1"
     objecttolerance="10"
     gridtolerance="10"
     guidetolerance="10"
     inkscape:pageopacity="0"
     inkscape:pageshadow="2"
     inkscape:window-width="920"
     inkscape:window-height="480"
     id="namedview6"
     showgrid="false"
     inkscape:zoom="3.6307692"
     inkscape:cx="1.9279661"
     inkscape:cy="32.5"
     inkscape:window-x="0"
     inkscape:window-y="27"
     inkscape:window-maximized="0"
     inkscape:current-layer="svg4" /><path
     d="M60.184,1H4.817C2.712,1,1,2.712,1,4.816l0,55.367C1,62.288,2.712,64,4.816,64h55.367C62.288,64,64,62.288,64,60.184V4.816  C64,2.712,62.288,1,60.184,1z M55.581,50.426l-5.746-11.784l0.811-1.661l0.3-0.146L62.5,42.469V53.8L55.581,50.426z M37.2,62.5  l3.814-7.823l9.931-4.843l3.04,1.482L48.531,62.5H37.2z M24.201,62.5l5.401-11.076l8.711,4.25c0.168,0.082,0.355,0.08,0.533,0.028  L35.531,62.5H24.201z M11.201,62.5l3.376-6.925l11.769-5.74l1.678,0.818l0.142,0.292L22.531,62.5H11.201z M9.427,14.58l5.739,11.766  l-0.816,1.671l-0.304,0.148L2.5,22.532V11.201L9.427,14.58z M27.8,2.5l-3.815,7.817l-9.939,4.848l-3.035-1.481L16.468,2.5H27.8z   M40.8,2.5l-5.407,11.08l-8.718-4.254c-0.165-0.08-0.348-0.078-0.522-0.031L29.468,2.5H40.8z M53.8,2.5l-3.377,6.92l-11.781,5.746  l-1.654-0.807l-0.152-0.313L42.469,2.5H53.8z M39.894,53.555l-1.252,0.61l-9.496-4.634l-5.311-10.89l0.373-0.764l2.139-1.043  l10.418,5.083l4.402,9.027L39.894,53.555z M16.674,50.616l-4.16-8.529l1.202,0.587c0.208,0.102,0.451,0.103,0.658,0l7.915-3.86  c0.013,0.053,0.012,0.107,0.036,0.157l4.629,9.492l-0.28-0.137c-0.208-0.102-0.45-0.102-0.658,0l-10.372,5.059l1.029-2.11  C16.775,51.066,16.775,50.824,16.674,50.616z M2.5,24.201l11.075,5.404l-4.249,8.708c-0.083,0.169-0.08,0.358-0.029,0.536  L2.5,35.531L2.5,24.201z M10.834,38.642l4.637-9.503l10.874-5.304l0.781,0.381l1.039,2.13l-5.08,10.41l-9.04,4.409l-2.599-1.269  L10.834,38.642z M25.106,11.439l1.239-0.604l9.52,4.645l5.3,10.866l-0.377,0.773l-2.146,1.047l-10.394-5.072l-4.414-9.048  L25.106,11.439z M48.326,14.375l4.168,8.546l-1.22-0.595c-0.209-0.101-0.449-0.101-0.658,0l-7.904,3.855  c-0.013-0.055-0.013-0.112-0.038-0.164l-4.618-9.469l0.257,0.125c0.207,0.102,0.449,0.101,0.658,0l10.383-5.064l-1.027,2.106  C48.225,13.924,48.225,14.167,48.326,14.375z M35.326,38.971l0.369,0.757l-9.021-4.401c-0.208-0.101-0.45-0.102-0.658,0  l-0.741,0.361l4.398-9.013c0.102-0.208,0.102-0.45,0-0.658l-0.357-0.733l8.996,4.39c0.207,0.102,0.449,0.101,0.658,0l0.748-0.365  l-4.393,9.003C35.225,38.521,35.225,38.763,35.326,38.971z M37.886,40.796l-1.051-2.154l5.074-10.4l9.036-4.407l2.617,1.276  l0.603,1.235l-4.642,9.514l-10.882,5.306L37.886,40.796z M55.674,26.675c0.08-0.164,0.078-0.346,0.032-0.519l6.794,3.313V40.8  l-11.082-5.403L55.674,26.675z M62.5,27.799l-7.815-3.811l-4.85-9.942l1.479-3.032L62.5,16.469V27.799z M13.717,16.674  c0.208,0.102,0.451,0.102,0.658,0l8.542-4.167l-0.59,1.209c-0.102,0.208-0.102,0.45,0,0.658l3.86,7.913  c-0.057,0.013-0.116,0.013-0.169,0.039l-9.477,4.623l0.134-0.274c0.102-0.208,0.102-0.45,0-0.658l-5.058-10.368L13.717,16.674z   M2.5,37.2l7.824,3.818l4.841,9.927l-1.483,3.042L2.5,48.531V37.2z M51.274,48.326c-0.209-0.102-0.449-0.102-0.658,0l-8.534,4.161  l0.592-1.213c0.102-0.208,0.102-0.45,0-0.658l-3.855-7.907c0.051-0.013,0.104-0.012,0.152-0.035l9.484-4.625l-0.129,0.264  c-0.102,0.208-0.102,0.45,0,0.658l5.066,10.389L51.274,48.326z M62.5,4.816v9.983L51.972,9.666L55.469,2.5h4.715  C61.461,2.5,62.5,3.539,62.5,4.816z M4.817,2.5H14.8L9.663,13.027L2.5,9.532V4.816C2.5,3.539,3.54,2.5,4.817,2.5z M2.5,60.184V50.2  l10.524,5.136L9.531,62.5H4.816C3.539,62.5,2.5,61.461,2.5,60.184z M60.184,62.5H50.2l5.133-10.526l7.167,3.495v4.715  C62.5,61.461,61.461,62.5,60.184,62.5z"
     id="path2" /></svg>