<?xml version="1.0" encoding="UTF-8" standalone="no"?>
<svg
   xmlns:dc="http://purl.org/dc/elements/1.1/"
   xmlns:cc="http://creativecommons.org/ns#"
   xmlns:rdf="http://www.w3.org/1999/02/22-rdf-syntax-ns#"
   xmlns:svg="http://www.w3.org/2000/svg"
   xmlns="http://www.w3.org/2000/svg"
   xmlns:sodipodi="http://sodipodi.sourceforge.net/DTD/sodipodi-0.dtd"
   xmlns:inkscape="http://www.inkscape.org/namespaces/inkscape"
   version="1.1"
   x="0px"
   y="0px"
   viewBox="0 0 100 100"
   style="enable-background:new 0 0 100 100;"
   xml:space="preserve"
   id="svg12"
   sodipodi:docname="noun_efficient_1044124_000000.svg"
   inkscape:version="0.92.1 r15371"><metadata
     id="metadata18"><rdf:RDF><cc:Work
         rdf:about=""><dc:format>image/svg+xml</dc:format><dc:type
           rdf:resource="http://purl.org/dc/dcmitype/StillImage" /></cc:Work></rdf:RDF></metadata><defs
     id="defs16" /><sodipodi:namedview
     pagecolor="#ffffff"
     bordercolor="#666666"
     borderopacity="1"
     objecttolerance="10"
     gridtolerance="10"
     guidetolerance="10"
     inkscape:pageopacity="0"
     inkscape:pageshadow="2"
     inkscape:window-width="1920"
     inkscape:window-height="986"
     id="namedview14"
     showgrid="false"
     inkscape:zoom="2.36"
     inkscape:cx="50"
     inkscape:cy="50"
     inkscape:window-x="-11"
     inkscape:window-y="-11"
     inkscape:window-maximized="1"
     inkscape:current-layer="svg12" /><path
     d="M68.6,70.9"
     id="path2" /><path
     d="M90.5,69.8L71,75.3l0,0.1c0.5,2,0.2,4-0.8,5.8c-1.1,1.9-2.8,3.3-4.9,3.8c-2.1,0.6-4.3,0.3-6.2-0.7l-11.2-6.3  l1.1-1.9l11.2,6.3c1.4,0.8,3,1,4.5,0.5c1.5-0.4,2.8-1.4,3.5-2.8c0.4-0.7,0.6-1.5,0.7-2.3c0.3-2-0.6-3.9-2.4-4.9L39.3,57.8  c0,0-2.9-1.9-6.7-0.8c0,0,0,0-0.1,0c-0.7,0.1-30.1,8.5-31.3,8.9l-0.1,0l6,21l19.6-5.6c2,1.2,17,10.5,18.8,11.6  c3.3,1.9,7.5,0.9,8.4,0.6c0.1,0,40-11.4,40-11.4c2.8-0.8,5-4.5,4-8.2C97.1,70.8,93.7,68.9,90.5,69.8z"
     id="path4"
     style="fill:#666666" /><path
     d="M94.5,16.5c-3-3.8-7.1-6.4-11.7-7.5L83,5.9l-6.9,4.7l6.4,5.5l0.1-3c3.4,0.9,6.4,2.9,8.6,5.8  c2.5,3.3,3.7,7.3,3.4,11.4l4.1,0.5C99.3,25.8,97.8,20.7,94.5,16.5z"
     id="path8" /><path
     d="M67.2,60.2l-6.4-5.5l-0.1,3c-3.4-0.9-6.4-2.9-8.6-5.8c-2.5-3.3-3.7-7.3-3.4-11.4l-4.1-0.5  c-0.5,5.2,1,10.3,4.2,14.5c3,3.8,7.1,6.4,11.7,7.5l-0.1,3.1L67.2,60.2z"
     id="path10" /><path
     inkscape:connector-curvature="0"
     d="m 92.852391,35.081762 c -1.217625,-2.519225 -3.316979,-4.450631 -5.878192,-5.458322 1.049677,-2.477237 1.175639,-5.290372 0.251923,-7.935559 -0.04199,-0.125961 -0.125961,-0.209935 -0.251923,-0.251923 -2.561212,-0.923715 -5.374347,-0.839741 -7.851587,0.209936 -1.049677,-2.477238 -2.939096,-4.492618 -5.374347,-5.668257 -0.125961,-0.04199 -0.251923,-0.04199 -0.377884,0 -2.477238,1.175639 -4.450632,3.274993 -5.458321,5.752231 -2.477239,-1.00769 -5.290374,-1.133651 -7.851586,-0.209935 -0.125961,0.04199 -0.209935,0.125961 -0.251923,0.251922 -0.923715,2.561213 -0.839741,5.374348 0.209936,7.851585 -2.477238,1.007691 -4.576593,2.939097 -5.752231,5.416335 -0.04199,0.125962 -0.04199,0.251923 0,0.377884 1.175638,2.477238 3.274993,4.450631 5.752231,5.416335 -1.049677,2.477237 -1.175639,5.290372 -0.209936,7.935559 0.04199,0.125961 0.125962,0.209935 0.251923,0.251923 1.175638,0.419871 2.435251,0.629806 3.652877,0.629806 1.42756,0 2.897108,-0.293909 4.240696,-0.839742 1.00769,2.477238 2.939096,4.576593 5.416334,5.710245 0.04199,0.04199 0.125961,0.04199 0.167948,0.04199 0.04199,0 0.125961,0 0.251923,-0.04199 2.435251,-1.175639 4.366657,-3.233007 5.416334,-5.710245 1.301602,0.545833 2.729163,0.839742 4.114737,0.839742 1.259612,0 2.519225,-0.209935 3.73685,-0.71378 0.125962,-0.04199 0.209936,-0.125962 0.251923,-0.251923 0.923716,-2.561213 0.839742,-5.374348 -0.167948,-7.809599 2.477238,-1.00769 4.576592,-2.939096 5.710243,-5.416334 0.04199,-0.125961 0.04199,-0.251923 0,-0.377884 z M 86.554328,22.191726 c 1.217626,3.61089 0.251923,7.64165 -2.393264,10.286837 -0.923715,0.923716 -2.01538,1.637497 -3.191019,2.141341 -0.125961,-1.679483 -0.839743,-3.191019 -1.88942,-4.366657 l 4.534607,-4.534605 c 0.167948,-0.167949 0.167948,-0.419871 0,-0.58782 -0.167948,-0.167948 -0.419871,-0.167948 -0.587819,0 l -4.534608,4.534606 c -1.175638,-1.049677 -2.72916,-1.763458 -4.408644,-1.889419 0.503845,-1.217626 1.217626,-2.30929 2.183329,-3.233005 2.687174,-2.645187 6.717936,-3.568903 10.286838,-2.351278 z M 73.538329,41.883671 c -3.652877,0 -6.63396,-2.981084 -6.63396,-6.63396 0,-3.652877 2.981083,-6.63396 6.63396,-6.63396 3.652877,0 6.63396,2.981083 6.63396,6.63396 0,3.652876 -2.981083,6.63396 -6.63396,6.63396 z m 0,-25.024305 c 2.183329,1.049678 3.904799,2.939096 4.828516,5.122425 -0.965703,0.503845 -1.88942,1.175638 -2.729161,1.973393 -0.671794,0.671794 -1.217626,1.427561 -1.679484,2.225316 v -4.744542 c 0,-0.251922 -0.167948,-0.41987 -0.419871,-0.41987 -0.251922,0 -0.419871,0.167948 -0.419871,0.41987 v 4.870503 c -0.461857,-0.797755 -1.049677,-1.553522 -1.72147,-2.225316 -0.797755,-0.797754 -1.721471,-1.469548 -2.687174,-1.931406 0.923716,-2.30929 2.645187,-4.198709 4.828515,-5.290373 z m -13.015997,5.374348 c 3.61089,-1.217626 7.64165,-0.251923 10.24485,2.43525 0.923715,0.923717 1.679483,1.973394 2.183328,3.149032 -1.679483,0.125961 -3.191019,0.839742 -4.366657,1.889419 L 64.049248,25.17281 c -0.167949,-0.167949 -0.419871,-0.167949 -0.58782,0 -0.167948,0.167948 -0.167948,0.419871 0,0.587819 l 4.534606,4.534605 c -1.049678,1.175639 -1.763458,2.729161 -1.889419,4.408644 -1.175639,-0.503844 -2.267303,-1.217625 -3.191019,-2.141341 -2.687174,-2.729161 -3.610889,-6.759921 -2.393264,-10.328823 z m -5.374348,13.015997 c 1.091665,-2.225316 2.981084,-3.946787 5.2064,-4.828515 0.503845,0.965703 1.175638,1.889419 1.973393,2.687173 0.71378,0.671794 1.469548,1.259613 2.30929,1.721471 H 59.68259 c -0.251922,0 -0.419871,0.167948 -0.419871,0.419871 0,0.251922 0.167949,0.419871 0.419871,0.419871 h 4.912489 c -0.839741,0.461857 -1.595508,1.091664 -2.30929,1.763457 -0.797754,0.797755 -1.42756,1.679484 -1.931405,2.687174 -2.225316,-0.965703 -4.072748,-2.687174 -5.2064,-4.870502 z m 5.416335,13.099971 c -1.217626,-3.568903 -0.293909,-7.599663 2.393264,-10.286837 0.923716,-0.923715 1.973393,-1.679483 3.149032,-2.183328 0.125961,1.637496 0.839741,3.149032 1.889419,4.32467 l -4.534606,4.534606 c -0.167948,0.167948 -0.167948,0.419871 0,0.587819 0.08397,0.08397 0.167949,0.125961 0.29391,0.125961 0.125961,0 0.209935,-0.04199 0.29391,-0.125961 l 4.534605,-4.534606 c 1.217625,1.091665 2.771148,1.763458 4.450631,1.889419 -0.503845,1.217626 -1.259613,2.30929 -2.183328,3.274993 -2.687174,2.687174 -6.717934,3.61089 -10.286837,2.393264 z m 13.015997,5.290373 c -2.225315,-1.091664 -3.946786,-2.981083 -4.828515,-5.206399 1.00769,-0.503845 1.931407,-1.133651 2.729161,-1.847432 0.629806,-0.671793 1.175639,-1.385574 1.637496,-2.183328 v 4.660567 c 0,0.251922 0.167949,0.419871 0.419871,0.419871 0.125961,0 0.209936,-0.04199 0.29391,-0.125961 0.08397,-0.08398 0.125961,-0.167949 0.125961,-0.29391 v -4.870502 c 0.461858,0.839741 1.049677,1.595509 1.721471,2.267302 0.839741,0.839742 1.763457,1.469548 2.72916,2.01538 -0.923715,2.183329 -2.645186,4.030761 -4.828515,5.164412 z m 12.974012,-5.374347 c -3.610889,1.259612 -7.51569,0.335897 -10.244851,-2.435251 -0.923716,-0.923716 -1.637496,-1.973393 -2.141342,-3.149032 1.637497,-0.125961 3.149032,-0.839742 4.32467,-1.889419 l 4.534608,4.534606 c 0.08397,0.08397 0.167948,0.125961 0.29391,0.125961 0.125961,0 0.209935,-0.04199 0.293909,-0.125961 0.167948,-0.167948 0.167948,-0.419871 0,-0.587819 l -4.534607,-4.534606 c 1.049677,-1.175638 1.763459,-2.72916 1.88942,-4.408644 1.175639,0.503845 2.267304,1.217625 3.191019,2.141341 2.687174,2.729161 3.61089,6.759921 2.393264,10.328824 z m 0.209936,-8.22947 c -0.503845,-0.965702 -1.175639,-1.889419 -1.973393,-2.687173 -0.671794,-0.671794 -1.427562,-1.217626 -2.225316,-1.679483 h 4.786528 c 0.125961,0 0.209935,-0.04199 0.29391,-0.125962 0.08397,-0.08397 0.125961,-0.167948 0.125961,-0.293909 0,-0.251923 -0.167949,-0.419871 -0.419871,-0.419871 h -5.038451 c 0.881729,-0.461858 1.679484,-1.091665 2.393265,-1.805445 0.797754,-0.797754 1.469548,-1.721471 1.931405,-2.687173 2.267304,0.923715 4.198709,2.645186 5.332361,4.870501 -1.091665,2.225316 -2.981083,3.946787 -5.206399,4.828515 z"
     id="path2-9"
     style="stroke-width:0.41987091" /></svg>