<?xml version="1.0" encoding="UTF-8" standalone="no"?>
<svg
   xmlns:dc="http://purl.org/dc/elements/1.1/"
   xmlns:cc="http://creativecommons.org/ns#"
   xmlns:rdf="http://www.w3.org/1999/02/22-rdf-syntax-ns#"
   xmlns:svg="http://www.w3.org/2000/svg"
   xmlns="http://www.w3.org/2000/svg"
   xmlns:sodipodi="http://sodipodi.sourceforge.net/DTD/sodipodi-0.dtd"
   xmlns:inkscape="http://www.inkscape.org/namespaces/inkscape"
   version="1.1"
   x="0px"
   y="0px"
   viewBox="0 0 100 100"
   style="enable-background:new 0 0 100 100;"
   xml:space="preserve"
   id="svg24"
   sodipodi:docname="ovin.svg"
   inkscape:version="0.92.3 (2405546, 2018-03-11)"><metadata
     id="metadata30"><rdf:RDF><cc:Work
         rdf:about=""><dc:format>image/svg+xml</dc:format><dc:type
           rdf:resource="http://purl.org/dc/dcmitype/StillImage" /><dc:title></dc:title></cc:Work></rdf:RDF></metadata><defs
     id="defs28" /><sodipodi:namedview
     pagecolor="#ffffff"
     bordercolor="#666666"
     borderopacity="1"
     objecttolerance="10"
     gridtolerance="10"
     guidetolerance="10"
     inkscape:pageopacity="0"
     inkscape:pageshadow="2"
     inkscape:window-width="920"
     inkscape:window-height="480"
     id="namedview26"
     showgrid="false"
     inkscape:zoom="2.36"
     inkscape:cx="2.9661017"
     inkscape:cy="50"
     inkscape:window-x="0"
     inkscape:window-y="27"
     inkscape:window-maximized="0"
     inkscape:current-layer="svg24" /><g
     id="g22"><path
       d="M21.3900146,27.4268799c0.2099609,0,0.3900146-0.1700439,0.3900146-0.3900146   c0-0.2200317-0.1800537-0.4000244-0.3900146-0.4000244c-0.2200317,0-0.4000244,0.1799927-0.4000244,0.4000244   C20.9899902,27.2568359,21.1699829,27.4268799,21.3900146,27.4268799z"
       id="path2" /><path
       d="M10.0900269,26.7768555c-0.3200073-0.6400146-0.1600342-1.460022-0.2000122-2.210022   c-0.0100098-0.2299805-0.0400391-0.4799805-0.0700073-0.7399902c-0.2000122-0.6199951-2.039978-0.2799683-2.5599976-0.289978   c-0.2999878,0-0.6099854-0.0300293-0.9100342-0.0700073c0.4200439,0.3499756,0.8099976,0.7700195,1.25,1.0499878   C7.75,24.6068726,7.2700195,24.7068481,7.1599731,24.6368408c-0.5799561-0.3599854-1.0799561-1.0499878-1.6900024-1.3999634   c-0.1299438-0.0500488-0.2599487-0.1000366-0.3799438-0.1700439c-0.1600342-0.0799561,0.3199463-0.1499634,0.3999634-0.1300049   c0.0100098,0,0.0200195,0.0100098,0.0300293,0.0200195c0.0100098,0,0.0100098,0,0.0100098-0.0100098   c1.1399536,0.6400146,2.4399414,0.3300171,3.6699829,0.3699951c0.1699829,0.0100098,0.3800049,0.0200195,0.5800171,0.0499878   c-0.0100098-0.2399902-0.0200195-0.4899902,0.0199585-0.7199707c-0.6599731-0.460022-1.2099609-0.3800049-1.9799805-0.3200073   c-0.2399902,0.0200195-0.5,0.0100098-0.7399902-0.039978c-0.3800049-0.0700073-0.75-0.1900024-1.1400146-0.2700195   c-0.7999878-0.1599731-1.1199951,0.3300171-1.2600098,1.0200195c-0.1900024,0.9500122,0.4400024,1.2799683,1.1099854,1.7999878   c0.8099976,0.6400146,1.6300049,1.9899902,2.7400513,2.0499878C8.960022,26.9068604,9.5599976,26.7668457,10.0900269,26.7768555z"
       id="path4" /><path
       d="M14.5499878,39.5668335c0.2200317-0.1599731,0.5300293-0.2299805,0.7800293-0.3099976   c0.9799805-0.3099976,1.6199951-1.1499634,2.5-1.6300049c0.7000122-0.3899536,1.4099731-0.7399902,2.1199951-1.1099854   c0.7000122-0.3699951,1.5299683-0.6900024,1.9199829-1.4199829c0.2399902-0.4500122,0.4500122-0.960022,0.5100098-1.4800415   c0.0599976-0.5799561-0.1300049-1.0899658-0.1400146-1.6599731c-0.0100098-0.7000122,1.5900269-1.6799927,1.0900269-2.3400269   c-0.2000122-0.2599487-0.2999878-0.6399536-0.3099976-1.0299683c-0.0400391,0.3599854-0.1100464,0.7000122-0.1900024,1.0499878   c-0.1700439,0.7399902-0.710022,1.5800171-1.25,2.1000366c-0.1400146,0.1299438-0.6500244,0.0599976-0.4700317-0.1100464   c0.6900024-0.6599731,1.0900269-1.5799561,1.2999878-2.4699707c0.0800171-0.3500366,0.0599976-0.7000122,0.2200317-1.0200195   c0.1599731-0.289978,0.4400024-0.5499878,0.6500244-0.8200073c0.1899414-0.4099731,0.4799805-0.8699951,1-0.8399658   c0.3299561,0.0199585,0.6299438,0.2699585,0.9599609,0.1799927C25.6300049,26.5568237,26,26.3868408,26.3699951,26.1968384   C26.9699707,25.8768311,28,25.5068359,28.3400269,24.8568726c0.0299683-0.0500488,0.0499878-0.1000366,0.0699463-0.1500244   c0.1500244-0.4799805,0.3200073-1,0.3900146-1.5c0.0100098-0.1099854,0-0.2000122-0.0199585-0.2700195   c0-0.0099487,0-0.0099487,0-0.0099487c-0.1000366-0.3000488-0.4400024-0.3600464-0.7400513-0.1000366   c-0.4699707,0.4100342-1.0199585,0.4199829-1.6199951,0.3699951c-1.1300049-0.0800171-2.1599731,0.4899902-3.0999756,1.0499878   c-0.4000244,0.25-0.6900024,0.4100342-0.8900146,0.8400269c-0.1099854,0.2399902-0.25,0.5200195-0.4899902,0.6500244   c-0.289978,0.1699829-0.539978,0.1900024-0.8699951,0.2099609c-0.6300049,0.0499878-1.1300049,0.5499878-1.6600342,0.8800049   c-0.5899658,0.3599854-0.7999878,0.5700073-1.539978,0.3900146c-0.3900146-0.0900269-1.5299683-0.2800293-1.6500244-0.7600098   C16.210022,26.4068604,16.25,26.3468628,16.289978,26.3268433c0.5700073-0.4699707-0.3599854-0.4500122-0.7099609-0.5800171   c-0.25-0.0899658-0.4800415-0.1999512-0.710022-0.2999878c-0.1599731,0.5-0.4799805,0.9800415-0.7299805,1.4100342   c-0.1000366,0.1699829-0.6099854,0.1099854-0.4700317-0.1300049c0.2399902-0.3900146,0.5300293-0.8400269,0.6799927-1.2999878   c-0.0299683,0.0199585-0.0599976,0.039978-0.0899658,0.0499878c-0.2000122,0.0700073-0.3400269,0.1099854-0.5599976,0.0899658   c-0.3800049-0.0499878-0.6400146-0.3800049-1.0599976-0.4099731c-0.1000366,0-0.1900024-0.0100098-0.2900391-0.0100098   c0.1400146,0.5100098,0.2900391,1,0.4400024,1.5c0.0300293,0.1300049-0.0499878,0.210022-0.1699829,0.2399902   c-0.5,0.1500244-1,0.2999878-1.5,0.4500122c0.1300049,0.3800049-0.0299683,0.8800049-0.1799927,1.2700195   c-0.2700195,0.6900024-0.2800293,1.3699951-0.5499878,2.0499878c-0.3500366,0.8900146-0.6099854,2.0200195-1.3099976,2.7099609   C9,33.4468384,8.9299927,33.5268555,8.8499756,33.6068726c0.0300293,0.0199585,0.0599976,0.039978,0.0700073,0.0700073   c0.0599976,0.2799683,0.1400146,0.5499878,0.2000122,0.8299561c0.0499878,0.2399902,0.1699829,0.4700317,0.1199951,0.7200317   c-0.039978,0.2099609-0.5499878,0.2000122-0.5-0.0499878c0.0400391-0.2200317-0.1199951-0.5-0.1599731-0.7300415   c-0.0200195-0.1199951-0.0499878-0.25-0.0800171-0.3699951c-0.4000244,0.6400146-0.5,1.3200073-0.2600098,2.1799927   c0.2299805,0.1799927,0.4700317,0.3500366,0.6500244,0.5800171c0.0799561,0.0999756,0.2199707,0.2600098,0.1599731,0.4099731   C8.960022,37.4468384,8.75,37.4568481,8.5300293,37.4368286c0.0699463,0.25,0.1699829,0.4900513,0.2999878,0.7300415   c0.3399658-0.1199951,0.7199707-0.1100464,1.0799561-0.0300293c0.4200439,0.0800171,0.8200073,0.25,1.2200317,0.3800049   c0.5700073,0.1799927,1.0200195,0.1500244,1.6099854,0.039978c2.0700073-0.3799438,2.9199829-2.2299805,4.4199829-3.4499512   c0.1100464-0.1000366,0.6200562-0.0500488,0.460022,0.0899658c-1.2600098,1.0200195-2.1799927,2.9000244-3.8399658,3.3699951   c-0.7000122,0.2000122-1.5,0.3900146-2.2300415,0.3400269c-0.7199707-0.0499878-1.8900146-0.9000244-2.5700073-0.4899902   c0.0300293,0.039978,0.0500488,0.0899658,0.0800171,0.1300049c0.3699951,0.4799805,0.75,0.9599609,1.1300049,1.4400024   c0.2399902,0.3099976,0.5100098,0.6799927,0.9400024,0.75c1.3399658,0.1999512,2.0599976-0.6000366,3.1400146-1.0700073   C14.3599854,39.6268311,14.460022,39.5968628,14.5499878,39.5668335z M13.2399902,27.9568481L13.25,27.9468384   c0.0100098-0.0100098,0.0100098-0.0100098,0.0100098-0.0100098c0.0100098-0.0299683,0.0100098-0.0599976,0.0100098-0.0999756   c0-0.1699829,0.5199585-0.2000122,0.5199585-0.039978c0,0.0899658-0.0099487,0.1900024-0.0899658,0.25   c-0.0100098,0.0099487-0.0300293,0.0199585-0.0499878,0.0299683c0,0-0.0100098,0-0.0100098,0.0100098   c-0.0100098,0.0100098-0.0200195,0.0100098-0.0200195,0.0200195c-0.0299683,0.0299683-0.0499878,0.0899658-0.0700073,0.1399536   C13.5,28.3968506,12.9799805,28.3968506,13.039978,28.2268677C13.0800171,28.1068726,13.1400146,28.0268555,13.2399902,27.9568481z    M12.3800049,29.4968262c0.1599731-0.25,0.3900146-0.4400024,0.5700073-0.6599731   c0.1199951-0.1500244,0.6300049-0.0900269,0.4599609,0.1199951c-0.1799927,0.2200317-0.3999634,0.4099731-0.5599976,0.6599731   C12.7399902,29.7768555,12.2299805,29.7168579,12.3800049,29.4968262z M12.3499756,35.5068359   c-0.0799561,0.25-0.0999756,0.4800415-0.0899658,0.7399902c0,0.0800171,0.0200195,0.210022-0.0499878,0.2700195   C12.039978,36.6668701,11.5,36.7368774,11.1900024,36.6268311c-0.1199951,0.0300293-0.2399902,0.0800171-0.3400269,0.1799927   c-0.0899658,0.1000366-0.1900024,0.2000122-0.2599487,0.3200073c-0.0200195,0.0300293-0.0500488,0.0500488-0.0800171,0.0700073   c-0.1000366,0.0499878-0.2200317,0.0599976-0.3200073,0.0300293c-0.0100098-0.0100098-0.0200195-0.0100098-0.0300293-0.0100098   c-0.0099487-0.0100098-0.0299683-0.0100098-0.0499878-0.0200195c-0.039978-0.0299683-0.0499878-0.0599976-0.0299683-0.1099854   c0.4099731-0.960022,1.3499756-1.6400146,1.6300049-2.6500244c0.039978-0.1799927,0.4699707-0.1799927,0.5099487,0   C12.2999878,34.7568359,12.4500122,35.1768799,12.3499756,35.5068359z M11.9699707,30.6668701   c0.1200562-0.2000122,0.2400513-0.4000244,0.3000488-0.6199951c0.039978-0.1400146,0.5499878-0.1400146,0.5100098,0.0099487   c-0.0700073,0.2200317-0.1900024,0.4300537-0.3000488,0.6300049   C12.4000244,30.8168335,11.9000244,30.7868652,11.9699707,30.6668701z M14.4699707,34.2668457   c-0.2399902,0.2000122-0.4899902,0.3900146-0.7299805,0.5900269c-0.2600098,0.1999512-0.4699707,0.3099976-0.7999878,0.3399658   c-0.3200073,0.0400391-0.3499756-0.3099976-0.0300293-0.3499756c0.2700195-0.0300293,0.4500122-0.2200317,0.6600342-0.3800049   c0.1699829-0.1400146,0.3399658-0.2800293,0.5100098-0.4199829C14.2600098,33.9068604,14.7199707,34.0668335,14.4699707,34.2668457   z M19.9699707,27.1368408c0.3600464-0.4699707,0.8800049-0.7999878,1.4900513-0.8699951   c0.1999512-0.0200195,0.6799927-0.0599976,0.9299927,0.0800171c0.5100098-0.1799927,0.7799683-1.0499878,0.9799805-1.4199829   c0.4100342-0.7800293,1.0100098-0.9200439,1.8599854-0.9500122c0.4299927-0.0200195,0.8600464-0.0300293,1.2900391,0.0100098   c0.4499512,0.0299683,0.6599731-0.1400146,1.0499878-0.3800049c0.1599731-0.1000366,0.6499634,0.0199585,0.3900146,0.1799927   c-0.6799927,0.4199829-0.9400024,0.5100098-1.7000122,0.4799805c-0.460022-0.0200195-0.9199829-0.0299683-1.3800049,0.0300293   c-0.8400269,0.0999756-0.9000244,0.6599731-1.2600098,1.2799683c-0.2299805,0.4000244-0.6799927,1.0200195-1.2000122,1.1099854   c-0.0799561,0.0400391-0.0199585,0.0599976,0,0.1700439c0.0100098,0.0599976,0.0200195,0.1300049,0.0100098,0.1900024   c-0.0299683,0.1699829-0.1499634,0.3399658-0.2199707,0.4899902c-0.0800171,0.1699829-0.1400146,0.3299561-0.2800293,0.4599609   c-0.2600098,0.2400513-0.7000122,0.0900269-1,0.0400391c-0.3200073-0.0400391-0.5499878-0.2300415-0.8099976-0.3599854   c-0.1599731,0.2099609-0.3099976,0.4299927-0.3800049,0.6899414c-0.0499878,0.1800537-0.5700073,0.1800537-0.5100098-0.039978   C19.3400269,27.9468384,19.6199951,27.5068359,19.9699707,27.1368408z"
       id="path6" /><path
       d="M33.039978,90.2068481c-0.1199951-0.039978-0.2099609-0.1400146-0.2799683-0.2600098   c-0.3300171-0.5299683-0.4700317-0.9899902-1.210022-0.7199707c-0.5100098,0.1900024-1.1400146,0.3699951-1.6599731,0.1499634   c-0.210022,0.3400269-0.5400391,0.6500244-0.7600098,1.0500488c-0.460022,0.8199463-0.289978,1.5,0.5200195,1.9899902   c0.5899658,0.3599854,2.2599487-0.2200317,2.9099731-0.3800049c0.6400146-0.1500244,1.0700073-0.8500366,0.6699829-1.4299927   C33.1400146,90.4868774,33.0800171,90.3468628,33.039978,90.2068481z"
       id="path8" /><path
       d="M56.7299805,90.0968628c-0.1300049,0-0.2600098-0.0599976-0.2299805-0.210022   c0.0499878-0.2199707,0.4000244-0.9599609-0.039978-0.5999756c-0.3099976,0.25-0.6100464,0.5299683-0.8600464,0.8399658   c-0.4499512,0.5700073-1.0799561,1.2600098-1.289978,1.960022c-0.2999878,0.9799805-1.1599731-0.0599976-1.4500122-0.5   c-0.2699585-0.3800049-0.7799683-0.6900024-1.0599976-1.1300049c-0.039978,0.2600098-0.0599976,0.5200195-0.1099854,0.789978   c-0.0999756,0.5700073-0.2600098,1.1199951-0.3300171,1.6800537c-0.0700073,0.5599976,0.0800171,0.7099609,0.6600342,0.9199829   c1.0999756,0.3900146,2.5199585,0.7799683,3.6300049,0.2999878c0.6099854-0.2600098,1.3699951-0.5700073,1.2699585-1.3699951   C56.8599854,92.296875,56.75,91.9068604,56.7700195,91.4268799C56.7800293,91.0368652,56.5900269,90.4868774,56.7299805,90.0968628   z"
       id="path10" /><path
       d="M79.7000122,81.1668701c-0.2800293-0.1300049-0.5800171-0.3500366-0.7600098-0.5900269   c-0.1599731,0.3099976-0.4199829,0.5-0.9000244,0.3699951c-0.2099609-0.0599976-0.3800049-0.2399902-0.539978-0.3699951   c-0.2700195-0.2399902-0.4400024-0.1799927-0.75-0.1799927c-0.2199707,0-0.9099731-0.1699829-1.0100098,0.0100098   c-0.0200195,1.0700073,0.0100098,2.0999756,0.2299805,3.1900024c0.0800171,0.3900146,0.2000122,0.7299805,0.2200317,1.1300049   c0.039978,0.6399536,0.75,0.2699585,1.2000122,0.2199707c0.6300049-0.0800171,1.2699585-0.0999756,1.8900146-0.2099609   c0.1699829-0.0300293,0.3399658-0.0599976,0.5099487-0.0599976c0.6799927,0,0.7600098-0.4900513,0.8300171-1.0500488   c0.0900269-0.7999878,0.3300171-1.539978,0.4400024-2.3299561C80.6099854,81.4968262,80.1500244,81.3768311,79.7000122,81.1668701z   "
       id="path12" /><path
       d="M80.8499756,72.1068726c0.0400391-0.5100098,0.1300049-0.9700317,0.3000488-1.3900146   c-0.4400024-0.0200195-0.8800049-0.1099854-1.2400513-0.3500366C79.3800049,70.0168457,79.1300049,69.4968262,79.5,68.9168701   l0.0100098-0.0100098c-0.6600342-0.3099976-1.5400391-0.7900391-1.6699829-1.4199829   c-0.1500244-0.7400513-0.4400024-1.4100342-0.7300415-2.1100464c-0.2699585-0.6300049-0.3999634-1.6499634-0.8999634-2.1399536   c-0.1700439-0.1700439-0.4100342-0.3600464-0.6600342-0.4200439c-0.0899658-0.0199585-0.2199707,0.4100342-0.25,0.4800415   c-0.1199951,0.2599487-0.3399658,0.5-0.5299683,0.7199707c-0.5400391,0.5900269-1.0200195,1.3499756-1.6500244,1.8499756   c-0.5100098,0.3900146-1.0999756-0.0299683-1.5899658,0.5500488c-0.3200073,0.3899536-0.6800537,0.5999756-1.2200317,0.539978   c-0.6300049-0.0700073-1.2399902-0.3300171-1.8699951-0.4000244c-0.4099731-0.039978-0.6199951,0.2300415-0.9400024,0.4000244   c-0.0200195,0.0100098-0.0300293,0.0200195-0.0499878,0.0300293c0.4599609,0.2299805,0.9400024,0.4099731,1.3699951,0.6799927   c0.4699707,0.2999878,0.9099731,0.5999756,1.4199829,0.8399658c0.2999878,0.1400146,0.5800171,0.3099976,0.8099976,0.5599976   c0.210022,0.2200317,0.3800049,0.4400024,0.5,0.7300415c0.1699829,0.4099731,0.1199951,1.3699951,0.7800293,1.4199829   c0.4299927,0.0299683,0.8399658,0.2199707,1.2699585,0.2399902c0.3600464,0.0200195,0.6800537,0.0499878,1.0200195,0.1900024   C74.8400269,71.7368774,75,72.0068359,75.1400146,72.1768799c0.3599854,0.4199829,0.7699585,0.7199707,1.25,1   c0.5,0.289978,0.5899658,0.5899658,0.2799683,1.0599976c-0.4599609,0.7199707-0.6300049,1.3899536-0.7000122,2.2399902   c-0.0699463,0.8499756-0.1399536,1.7000122-0.1899414,2.5499878c-0.0100098,0.0999756-0.0400391,0.3200073-0.0700073,0.5599976   c0,0.039978,0,0.0700073-0.0100098,0.1099854c0,0.0599976-0.0100098,0.1199951-0.0100098,0.1799927   c-0.0100098,0.0500488-0.0100098,0.0900269-0.0100098,0.1199951c0.0200195-0.0099487,0.039978-0.0099487,0.0700073-0.0099487   c0.4000244-0.0400391,0.9099731,0.1399536,1.289978,0.0499878c0.3400269-0.0800171,0.6600342,0.1499634,0.9000244,0.3599854   c0.5299683,0.4799805,0.5900269-0.0300293,0.710022-0.4299927c0.0299683-0.1300049,0.2699585-0.1300049,0.3699951-0.1099854   h0.0100098c0.0599976,0.0099487,0.1299438,0.0499878,0.1399536,0.1099854   c0.1000366,0.8099976,2.0700073,1.7000122,1.9700317,0.5299683c-0.0100098-0.1199951-0.0300293-0.25-0.0499878-0.3699951   c-0.0200195-0.1300049-0.0500488-0.2600098-0.0800171-0.3899536c-0.0599976-0.25-0.1400146-0.5100098-0.210022-0.7600098   c-0.2600098-0.9100342-0.4099731-1.8900146-0.4899902-2.8300171c-0.039978-0.5900269-0.0900269-1.210022,0.0499878-1.7999878   C80.5300293,73.586853,80.7800293,72.8868408,80.8499756,72.1068726z"
       id="path14" /><path
       d="M87.3300171,84.5068359c-0.0300293-0.1499634-0.25-0.2099609-0.4000244-0.2999878   c-0.039978,0.0200195-0.0800171,0.0300293-0.1300049,0.039978c-0.25,0.0300293-0.9400024-0.2199707-1.0499878,0.0900269   c-0.1199951,0.3599854-0.2399902,0.7199707-0.4400024,1.039978c-0.3699951,0.5900269-0.4899902,0.5200195-1.0599976,0.7200317   c-0.4099731,0.1499634-0.6300049-0.0400391-0.6599731-0.460022c-0.0100098-0.3099976-0.1000366-0.5100098-0.2300415-0.7799683   c-0.0999756-0.2200317-0.1599731-0.25-0.1099854-0.3400269c-0.1099854,0.0999756-0.2299805,0.1799927-0.3900146,0.1900024   c-0.0700073,0.0100098-0.1499634,0-0.2299805-0.0299683c-0.0200195,0.3999634-0.0999756,0.789978-0.0900269,1.1899414   c0.0200195,0.3600464,0.1300049,0.710022,0.1100464,1.0800171C82.6400146,87.2668457,82.5,87.7768555,82.6300049,88.0768433   c0.1400146,0.3099976,0.75,0.3200073,1.039978,0.3599854c0.3699951,0.0500488,0.9000244,0.210022,1.2600098,0.0599976   c0.3800049-0.1499634,0.7600098-0.4099731,1.1500244-0.5199585c0.3599854-0.1000366,0.9299927-0.1199951,1.0999756-0.4899902   c0.25-0.5400391,0.1000366-0.710022-0.0299683-1.2200317c-0.0800171-0.3699951-0.0599976-0.7399902,0.0199585-1.1099854   C87.210022,84.9868774,87.3599854,84.6668701,87.3300171,84.5068359z"
       id="path16" /><path
       d="M87.2000122,74.6868286c0.1799927-0.289978-0.4500122-0.5199585-0.6300049-0.7399902   c-0.1199951-0.1499634-0.1600342-0.4099731-0.1400146-0.6099854c0-0.1500244-1.1400146-0.25-1.3499756-0.5100098   c-0.1199951-0.1599731,0.0199585-0.4199829-0.0900269-0.6099854c-0.039978-0.0700073-0.1400146-0.2000122-0.2099609-0.3200073   c-0.1300049,0.0200195-0.2700195,0.039978-0.4100342,0.0300293c-0.4400024-0.0400391-0.75-0.25-1.0499878-0.5100098   c-0.1099854,1.0799561,0.1799927,1.9599609,0.5700073,3c0.3499756,0.9499512-0.0300293,1.7299805-0.0700073,2.6999512   c-0.0300293,0.4700317,0,1.0200195-0.1699829,1.4700317c-0.210022,0.5499878-0.5700073,1.0299683-0.7800293,1.5800171   c-0.4099731,1.0499878-0.5599976,2.0599976-0.4099731,3.1799927c0.0199585,0.1199951,0.0199585,0.3699951,0.0700073,0.5800171   c0.0299683,0.1499634,0.0699463,0.2799683,0.1499634,0.3299561c0,0.0100098,0.0100098,0.0100098,0.0100098,0.0100098   c0.0299683,0,0.4799805-0.2299805,0.5900269-0.2399902c0.3899536-0.0300293,0.6999512,0.7999878,0.7699585,1.0700073   c0.0800171,0.3300171-0.0800171,0.6499634,0.2600098,0.5700073c0.3099976-0.0700073,0.3599854-0.1100464,0.5300293-0.4400024   c0.25-0.4700317,0.3099976-1.210022,0.8699951-1.4200439c0.2699585-0.0999756,0.9699707,0.2600098,0.9099731-0.1599731V83.586853   c-0.0200195-0.1500244-0.0200195-0.2999878-0.0100098-0.4400024c0.0100098-0.25,0.0400391-0.5100098,0.0499878-0.7600098   c-0.0099487-0.5100098-0.0899658-1.0299683-0.3499756-1.4799805c-0.0900269-0.1300049-0.210022-0.2800293-0.2299805-0.4400024   c-0.1100464-0.75,0.2699585-1.6799927,0.6799927-2.2999878c0.3099976-0.4800415,0.6099854-0.9100342,0.8900146-1.3699951   c-0.1199951-0.4900513-0.2900391-0.960022-0.4400024-1.4400024C87.1400146,75.1268311,87.0599976,74.8968506,87.2000122,74.6868286   z"
       id="path18" /><path
       d="M91.539978,44.9868774c-0.0599976-1.0900269-0.2399902-2.1700439-0.3899536-3.25   C91.0800171,41.2568359,91,40.8068237,90.7999878,40.3568726c-0.1199951-0.2600098-0.25-0.5599976-0.2399902-0.8600464   c0.0100098-0.9799805,0.7000122-1.9499512,0.5700073-2.9299927c-0.1199951-0.8800049-1.4000244-1.5700073-1.9700317-2.2299805   c-1.039978-1.2000122-2.4499512-2.6799927-1.9799805-4.3400269c0.460022-1.6499634-2.710022-1.3800049-3.7999878-1.5999756   c-0.8699951-0.1699829-1.6900024-0.6699829-2.5700073-0.7399902c-0.4199829-0.0300293-0.8300171-0.0800171-1.2399902-0.1199951   c-0.5800171-0.0499878-0.9000244,0.2099609-1.4899902-0.0599976c-0.6900024-0.3099976-1.2200317-0.8500366-1.7200317-1.4000244   c-0.3200073-0.3499756-0.6599731-0.7399902-1.0999756-0.960022c-0.5499878-0.2799683-1.0200195-0.2099609-1.6099854-0.25   c-0.8600464-0.0499878-1.5900269-0.4299927-2.3699951-0.7699585c-0.5900269-0.25-1.2700195-0.5300293-1.9200439-0.3400269   c-0.6499634,0.1799927-1.0999756,0.6099854-1.6699829,0.9500122c-0.6099854,0.3699951-1.2399902,0.5900269-1.9700317,0.5800171   c-0.9399414,0-1.4599609,0.0100098-2.1999512,0.6900024c-0.460022,0.4299927-0.9200439,0.9599609-1.4800415,1.2699585   c-1,0.5200195-2.8099976,0.8500366-3.7999878,0.1400146c-0.7799683-0.5599976-1.3300171-0.9299927-2.3599854-0.9899902   c-0.789978-0.0499878-1.2999878-0.0200195-1.960022,0.3900146c-0.4599609,0.289978-1.0100098,0.6599731-1.5899658,0.5700073   c-0.1799927-0.0300293-0.3200073-0.1300049-0.4800415-0.1900024c-0.5299683-0.1700439-1.0799561,0.0599976-1.5799561,0.1999512   c-0.6300049,0.1800537-1.3800049,0.2200317-1.9700317,0.5200195c-0.7399902,0.3599854-1.4199829,0.6900024-2.2699585,0.7299805   c-0.8000488,0.0400391-1.6600342-0.2299805-2.4400024-0.0999756c-0.6500244,0.1099854-1.0400391,0.3699951-1.5400391,0.7600098   c-0.2000122,0.1599731-0.4199829,0.2999878-0.6799927,0.3699951c-0.7999878,0.2000122-1.7799683,0.3699951-2.6099854,0.289978   c-0.4400024-0.0499878-1.0900269-0.25-1.5200195-0.0999756c-0.1099854,0.039978-0.5100098,0.4099731-0.7299805,0.6400146   c0.039978,0.1900024,0.0100098,0.3499756-0.1199951,0.4400024c-0.0900269,0.0700073-0.2600098,0.1099854-0.3599854,0.0299683   c-0.1700439-0.1199951-0.1800537-0.289978-0.1000366-0.4699707c-0.0299683-0.0700073-0.0599976-0.1400146-0.0899658-0.2200317   c-0.0500488,0.1300049-0.1000366,0.2700195-0.1500244,0.4100342c-0.3200073,0.8800049-0.4099731,1.789978-0.5700073,2.7099609   c-0.1599731,0.9000244-0.3599854,1.7900391-0.5200195,2.6900024c-0.0799561,0.460022-0.1199951,1.2200317-0.5499878,1.5400391   c-0.4299927,0.2999878-0.7099609,0.2099609-1,0.7799683c-0.3800049,0.75-0.7199707,1.3900146-1.3599854,1.9700317   c-0.5700073,0.5-0.8699951,1-1.2999878,1.6300049c-0.460022,0.6900024-1.0700073,1.2699585-1.5400391,1.9599609   c-0.0999756,0.1400146-0.6099854,0.1099854-0.5099487-0.039978c0.5099487-0.75,1.2099609-1.3800049,1.6799927-2.1500244   c0.2799683-0.4599609,0.5-0.8900146,0.8999634-1.2399902c0.6900024-0.5899658,1.1300049-1.1900024,1.5300293-1.9799805   c0.1699829-0.3300171,0.3599854-0.7900391,0.75-0.9299927c0.6199951-0.2200317,0.7099609-0.6000366,0.8300171-1.2600098   c0.1599731-0.8500366,0.3399658-1.7000122,0.5-2.5599976c0.1499634-0.8200073,0.1799927-1.6900024,0.4299927-2.4899902   c0.1699829-0.5800171,0.6599731-1.3400269,0.3699951-1.9400024c-0.210022-0.3099976-0.4299927-0.6300049-0.6500244-0.9400024   c-0.3399658-0.4899902-0.6699829-0.9700317-1.1300049-1.3600464c-0.6199951-0.5299683-1.0899658-0.9499512-1.3499756-1.7399902   c-0.3300171-1.039978-0.75-2.039978-1.5400391-2.8299561c-0.6599731-0.6500244-1.4299927-1.1500244-2.1299438-1.75   c-0.25-0.2000122-0.4400024-0.5-0.7300415-0.6500244c-0.3999634-0.210022-0.8399658-0.3599854-1.2299805-0.5800171   c-0.8800049-0.5100098-1.5-1.3200073-2.4000244-1.8099976c-0.4699707-0.2600098-1-0.5700073-1.5499878-0.6400146   c-0.4099731-0.0599976-0.5599976,0.210022-0.8099976,0.460022c-0.4299927,0.4199829-0.9000244,0.539978-1.4899902,0.4100342   c-0.3400269-0.0700073-0.7000122-0.2400513-1-0.4100342c-0.1300049-0.0800171-0.4899902-0.3900146-0.6500244-0.3699951   c-0.8499756,0.1400146-1.5899658,0.8699951-2.4299927,1.1300049c-0.5100098,0.1500244-0.9899902,0.1599731-1.5100098,0.2299805   c-1.1699829,0.1500244-2.25,0.6700439-3.1799927,1.3900146c-0.3499756,0.2700195-0.4599609,0.4000244-0.3499756,0.8599854   c0.0599976,0.2300415,0.1099854,0.5200195-0.0300293,0.7399902c-0.25,0.3600464-0.7299805,0.5900269-0.8200073,1.0400391v0.0100098   c-0.0099487,0.039978-0.0099487,0.0899658-0.0199585,0.1300049c-0.0599976,0.4299927,0.0100098,0.8599854,0.0499878,1.2999878   c0.0700073,0.8899536-0.289978,2.3999634,0.5200195,3.0299683l1.3399658-0.3999634   c-0.1599731-0.5100098-0.3099976-1.0300293-0.4599609-1.5400391c-0.0400391-0.1599731,0.0899658-0.2299805,0.2299805-0.2600098   c0.3900146-0.0499878,0.8800049-0.0699463,1.25,0.0800171c0.3999634,0.1699829,0.6400146,0.4799805,1.1099854,0.0200195   c0.1099854-0.1099854,0.1600342-0.1900024,0.3099976-0.2200317c0.1400146-0.0199585,0.3699951,0.0100098,0.3400269,0.210022   C15,25.0268555,14.9500122,25.0568237,14.9299927,25.0668335c0.0200195,0,0.0599976,0,0.1400146,0.0400391   c0.2600098,0.1199951,0.6499634,0.3499756,0.9500122,0.3599854c0.3299561,0.0100098,0.7600098,0.0299683,1.0100098,0.2799683   c0.25,0.2400513,0.1699829,0.5-0.1200562,0.6700439c-0.0599976,0.039978-0.1199951,0.039978-0.1499634,0.039978   c0.039978,0.0200195,0.1599731,0.0499878,0.3999634,0.1300049c0.1600342,0.0599976,0.3099976,0.1199951,0.4700317,0.1699829   c0.3900146,0.1099854,0.789978,0.2600098,1.1400146-0.0100098c0.2999878-0.2299805,0.6399536-0.3899536,0.9400024-0.6099854   c0.2399902-0.1799927,0.5199585-0.4299927,0.8299561-0.4899902c0.4700317-0.0900269,1.1900024,0.0100098,1.3699951-0.6199951   c0.0400391-0.1199951,0.0500488-0.2800293,0.1200562-0.3800049c0.2599487-0.3699951,0.789978-0.5800171,1.1699829-0.7999878   c0.5599976-0.3200073,1.1400146-0.6500244,1.7600098-0.8300171c0.3299561-0.0999756,0.6799927-0.2000122,1.0199585-0.2000122   c0.4100342-0.0100098,0.8900146,0.1300049,1.2700195,0.0100098c0.3099976-0.0999756,0.4899902-0.4199829,0.7999878-0.4899902   s0.6199951-0.0599976,0.8599854,0.0499878c0.2000122,0.0900269,0.3500366,0.2399902,0.4100342,0.460022   c0.0299683,0.1199951,0.0299683,0.2600098-0.0100098,0.4199829c-0.1300049,0.5700073-0.2299805,1.1900024-0.5,1.7200317   c-0.0499878,0.1299438-0.1300049,0.25-0.210022,0.3699951c-0.1099854,0.1499634-0.2799683,0.2599487-0.4599609,0.3499756   c-0.1700439,0.0900269-0.3500366,0.1599731-0.4899902,0.2399902c-0.7600098,0.4400024-1.7300415,1.1400146-2.6600342,1.1199951   c-0.3800049-0.0100098-0.8699951-0.3200073-1.1199951,0.1600342c-0.289978,0.539978-0.4000244,1.1399536-0.25,1.7399902   c0.0499878,0.1900024,0.3499756,0.5899658,0.3200073,0.7999878c-0.0499878,0.3699951-0.2600098,0.8099976-0.4700317,1.1099854   c-0.3799438,0.5200195-0.7599487,0.7600098-0.6499634,1.460022c0.0800171,0.4400024,0.1499634,0.9000244,0.0700073,1.3400269   c-0.1300049,0.7199707-0.4000244,1.5999756-0.9500122,2.1199951c-1.0200195,0.9599609-2.5900269,1.4400024-3.8099976,2.1300049   c-0.4700317,0.2599487-0.8699951,0.6099854-1.289978,0.9399414c0.1499634,0.1800537,0.1799927,0.3000488,0.2099609,0.5500488   c0.7700195,0.0599976,1.6000366,0.1999512,2.3699951,0.0999756c0.3699951-0.0499878,0.6799927-0.6699829,0.8300171-0.9199829   c0.0999756-0.1699829,0.6099854-0.1099854,0.460022,0.1199951c-0.1900024,0.3300171-0.5599976,0.9699707-0.9900513,1.0700073   c-0.8099976,0.1900024-1.7399902,0.039978-2.5899658-0.0300293c0.2000122,0.4899902,0.7199707,0.9299927,1.1400146,1.1799927   c0.5,0.3200073,1.289978,0.5100098,1.7099609,0.9299927c0.0700073,0.0700073,0.1500244,0.1500244,0.2000122,0.2400513   c0.0200195,0,0.0300293-0.0100098,0.0599976-0.0200195c0.25-0.0700073,0.4899902,0.1699829,0.1600342,0.2700195   c-0.1800537,0.0599976-0.3600464,0.1300049-0.5500488,0.0799561c-0.0699463-0.0199585-0.1300049-0.0499878-0.1399536-0.1199951   c-0.1199951-0.4699707-1.0100098-0.6900024-1.4100342-0.9199829c-0.3800049-0.210022-0.7699585-0.4400024-1.0700073-0.7600098   c-0.25-0.2600098-0.5499878-0.5599976-0.6499634-0.9099731C16.5,39.4668579,16.5499878,39.3268433,16.460022,39.1368408   c-0.1500244,0.1000366-0.3000488,0.2000122-0.4700317,0.2800293c-0.0599976,0.039978-0.1199951,0.0599976-0.1900024,0.0899658   c-0.0999756,0.0400391-0.2000122,0.0700073-0.289978,0.1000366c-0.3800049,0.1199951-0.6799927,0.2199707-0.8800049,0.6699829   c-0.1099854,0.2299805-0.2399902,0.4299927-0.4400024,0.5999756c-0.4299927,0.3600464-0.9400024,0.9299927-0.6300049,1.5500488   c0.1300049,0.2699585,0.3400269,0.4599609,0.5100098,0.6999512c0.0299683,0.0400391,0.039978,0.0800171,0.0499878,0.1100464   c0.1500244,0.2699585,0.1400146,0.5299683,0.1799927,0.8499756c0.1099854,0.789978,0.4000244,1.6199951,0.7800293,2.3200073   c0.25,0.4400024,0.7000122,0.6699829,1.0599976,1.0100098c0.7000122,0.6499634,1.3599854,1.2600098,2.25,1.6599731   c0.2799683,0.1300049-0.1799927,0.3200073-0.3500366,0.2399902c-0.9199829-0.4199829-1.5899658-1.0499878-2.3299561-1.7199707   c-0.3099976-0.2700195-0.7700195-0.5100098-1-0.8599854c-0.4200439-0.6600342-0.7400513-1.5300293-0.8800049-2.2900391   c-0.0200195-0.1199951-0.0300293-0.25-0.0400391-0.3800049c-0.1399536,0.1500244-0.2799683,0.3099976-0.3499756,0.4700317   c-0.3400269,0.8599854-1.0599976,1.5999756-1.0200195,2.5799561c0.0400391,0.8500366,0.7000122,1.4900513,0.6300049,2.3900146   C13,50.0668335,12.9000244,50.4168701,13.1900024,50.9668579c0.1900024,0.3499756,0.4400024,0.7000122,0.5499878,1.0800171   C14,52.9068604,13.7600098,53.7468262,13.8800049,54.6168213c0.0800171,0.6000366,0.3800049,0.710022,0.8099976,1.0500488   c0.1799927,0.1499634,0.289978,0.3499756,0.289978,0.5999756c-0.0100098,0.6900024-0.4899902,1.6799927,0.0700073,2.2999878   c0.0400391,0.0200195,0.0700073,0.0499878,0.0900269,0.0900269c0.1300049,0.3099976,0.2799683,0.7799683,0.1300049,1.0999756   c-0.1500244,0.3500366-0.710022,0.7700195-0.2900391,1.1099854c0.3699951,0.3100586,0.9700317,0.5,1.3000488,0.8500366   c0.3199463,0.3399658,0.3999634,0.8200073,0.6099854,1.2199707c0.4500122,0.8400269,0.9299927,1.1500244,1.7799683,1.5200195   C19.0800171,64.6368408,19.5,64.836853,19.9099731,65.0368652c1.0500488,0.4899902,1.5300293,1.3299561,1.4700317,2.4799805   c-0.0300293,0.7299805-0.1699829,1.7999878,0.7600098,2.0300293c0.5999756,0.1499634,1.1199951,0.4400024,1.5599976,0.8599854   C24.2800293,70.9568481,24.789978,71.546875,25.25,72.1868286c0.4000244,0.5700073,0.7999878,1.2600098,1.4299927,1.6100464   c0.1900024,0.1099854,0.3599854,0.25,0.5200195,0.3999634c0.8499756,0.2399902,1.5999756,0.7999878,2.4799805,1   c0.7299805,0.1600342,1.789978-0.1400146,2.5-0.3599854c0.2600098-0.0800171,0.5,0.1900024,0.1699829,0.2999878   c-0.789978,0.2399902-1.789978,0.4899902-2.6099854,0.4100342C29,75.4668579,28.3400269,75.0668335,27.6699829,74.7568359   c0.4299927,0.6600342,0.6900024,1.460022,0.9500122,2.1600342c0.2700195,0.7299805,0.6099854,1.4400024,0.6799927,2.2199707   c0.0599976,0.6600342,0.0200195,1.1400146,0.7200317,1.3699951c0.4599609,0.1500244,0.7999878,0.460022,0.5899658,0.9800415   c-0.2199707,0.5099487-0.4500122,1-0.4599609,1.5699463c-0.0100098,0.3200073,0,0.6300049-0.0400391,0.9400024   c-0.1599731,1.0200195-0.2799683,2.0700073-0.2199707,3.1100464c0.0100098,0.3499756,0.0499878,0.6999512,0.0999756,1.0499878   C30,88.2568359,30.0200195,88.3468628,30.0300293,88.4368286l0.0099487,0.0100098   c0.0100098,0.0200195,0.0100098,0.0400391,0.0100098,0.0599976c0.0200195,0.0599976,0.0200195,0.1199951,0.0200195,0.1700439   c0,0.0099487,0.0100098,0.0199585,0.0100098,0.0199585c0.1099854,0.4299927,0.3699951,0.4899902,0.8699951,0.3300171   c0.3099976-0.0999756,0.7099609-0.289978,1.0800171-0.3200073c0.2599487-0.0299683,0.5199585,0.0200195,0.7199707,0.2299805   c0.0300293,0.0400391,0.0700073,0.0800171,0.0900269,0.1199951C32.9000244,89.1368408,32.9500122,89.2268677,33,89.3268433   l0.0300293-0.1799927c0.0099487-0.0100098,0-0.0200195,0-0.0300293c0-0.1099854,0-0.2099609-0.0100098-0.3199463v-0.0300293   c-0.1400146-1.6300049-0.8099976-3.2700195-0.6400146-4.9299927c0.0499878-0.5499878,0.3800049-0.8699951,0.8200073-1.1500244   c0.5199585-0.3299561,0.2399902-1.0799561,0.1699829-1.5799561c-0.0800171-0.5100098-0.1500244-1.0300293-0.2199707-1.5500488   c-0.1199951-0.8199463-0.460022-1.6399536-0.1900024-2.4499512c0.25-0.7600098,1.2599487-1.6900024,0.8399658-2.460022   c-0.3900146-0.6900024,0.1000366-1.2299805,0.0400391-1.960022c-0.0400391-0.5899658,0.789978-1.1799927,1.1799927-1.5199585   c0.3599854-0.3400269,0.789978-0.3400269,1.2399902-0.3900146c-0.5200195-0.289978-0.9500122-0.8300171-1.1799927-1.2700195   C34.9199829,69.2068481,34.5,68.3068237,34.5,67.6868286c-0.8800049,0.1100464-2.3499756-0.2199707-2.5900269-0.3899536   c-0.0499878-0.0400391-0.0699463-0.0700073-0.0799561-0.1100464c-0.0700073-0.0199585-0.1400146-0.0499878-0.210022-0.0599976   c-0.8699951-0.2099609-0.4500122,0-0.710022,0.3699951c-0.0999756,0.1500244-0.3299561,0.1600342-0.4799805,0.0900269   c-0.3999634-0.1799927-0.7700195-0.6300049-1.289978-0.460022c-0.1900024,0.0599976-0.3599854,0.0700073-0.5599976,0.0800171   c-0.6799927,0-1.710022-0.2299805-2.1799927-0.7700195c-0.3500366-0.3899536-0.6700439-0.8099976-1.0300293-1.1900024   c-0.4099731-0.4199829-0.9099731-0.6900024-1.3499756-1.0799561c-0.8600464-0.7800293-1.8200073-1.3900146-2.6400146-2.2200317   c-0.539978-0.539978-0.9500122-1.1699829-1.4700317-1.7099609c-0.5299683-0.5500488-1.0799561-1.0800171-1.6299438-1.6100464   c-0.4300537-0.4099731-0.8700562-0.7600098-1.0700073-1.3399658c-0.3200073-0.9000244,0.3099976-1.8599854,0.6300049-2.6500244   c0.0899658-0.2199707,0.6099854-0.1799927,0.5099487,0.0499878c-0.4899902,1.1900024-1.1599731,2.2700195-0.0299683,3.3500366   c0.8200073,0.7799683,1.8200073,1.5599976,2.4699707,2.4899902c0.4500122,0.6500244,1.0100098,1.2199707,1.5900269,1.7600098   c0.3699951,0.3299561,0.7399902,0.6300049,1.1699829,0.8900146c0.5599976,0.3499756,0.9700317,0.8799438,1.5300293,1.2399902   c0.8099976,0.5,1.1900024,1.4199829,1.9199829,1.9799805c0.3900146,0.289978,1.2700195,0.5100098,1.7399902,0.4500122   c0.4799805-0.0700073,0.7999878-0.2399902,1.2700195,0.0100098c0.1599731,0.0799561,0.3099976,0.1699829,0.4599609,0.2699585   v-0.039978c0.0800171-0.1900024,0.210022-0.3099976,0.4100342-0.3699951   c0.4299927-0.1099854,1.2700195,0.0100098,1.6099854,0.3200073c0.0200195,0.0100098,0.0300293,0.039978,0.0400391,0.0700073   c0.3299561,0.0700073,0.8399658,0.1099854,1.0599976,0.1399536c0.2699585,0.0400391,0.5599976,0.0800171,0.8399658,0.0400391   c0.1400146-0.0200195,0.1799927-0.0300293,0.1900024-0.0300293v-0.0100098   c0.0200195-0.0299683,0.039978-0.0699463,0.0700073-0.0899658c0.0999756-0.0800171,0.25-0.0900269,0.3699951-0.0300293   c0.0599976,0.0300293,0.0900269,0.0800171,0.0900269,0.1300049c0,0.0100098-0.0100098,0.0300293-0.0100098,0.0400391   c-0.0100098,0.0799561-0.0499878,0.1399536-0.1099854,0.1900024c-0.0600586,0.3699951,0.3299561,1.4599609,0.4399414,1.6699829   c0.2600098,0.5100098,0.8900146,1.5299683,1.6100464,1.4599609c0.1099854-0.0199585,0.2199707-0.0499878,0.3299561-0.0699463   c0-0.0200195,0-0.0400391,0.0100098-0.0800171c0.0200195-0.1099854,0.0400391-0.2200317,0.0599976-0.3300171   c0.0200195-0.0999756,0.1600342-0.1499634,0.2399902-0.1599731c0.4300537-0.0100098,0.8500366,0.3599854,1.1500244,0.5999756   c0.789978,0.6000366,1.2600098,1.4000244,1.9100342,2.1199951c0.2299805,0.2600098,0.4899902,0.4700317,0.6299438,0.7900391   c0.1100464,0.2399902,0.2000122,0.5799561,0.4200439,0.75C42.5300293,74.7868652,43.6699829,74.3668213,44.5,74.546875   c0.5100098,0.1099854,0.6799927,0.5099487,0.7700195,0.9799805c0.1999512,0.9299927,1.0299683,1.7600098,1.5100098,2.5899658   c0.5599976,0.9400024,1.2099609,1.9000244,1.8499756,2.8000488c0.4699707,0.6599731,1.3800049,1.1999512,1.6699829,1.9699707   c0.3900146,1.0300293-0.7000122,1.9400024-0.0599976,3.0100098c0.5300293,0.8900146,1.3099976,1.5999756,1.6000366,2.6300049   c0.039978,0.1300049,0.0599976,0.25,0.0699463,0.3800049c0.0300293,0.25,0.0400391,0.5,0.0900269,0.7399902   c0,0.0200195,0,0.0499878,0.0100098,0.0700073c0.1099854,0.4500122,0.4199829,0.8200073,0.7299805,1.1499634   c0.2999878,0.3000488,0.5700073,0.5700073,0.8400269,0.8900146c0.0599976,0.0800171,0.1300049,0.1500244,0.2000122,0.2200317   c0.0099487,0.0100098,0.0199585,0.0199585,0.0299683,0.0199585c0.0300293-0.0599976,0.0499878-0.1199951,0.0800171-0.1699829   c0.2000122-0.3999634,0.4400024-0.7700195,0.7000122-1.1300049c0.3999634-0.5499878,0.8099976-1.0999756,1.3399658-1.5299683   c0.1099854-0.0900269,0.2700195-0.2300415,0.4400024-0.3300171c0.1400146-0.0800171,0.2800293-0.1300049,0.4199829-0.1099854   c0.0700073,0,0.1400146,0.0100098,0.2000122,0.0499878c0.0499878,0.0299683,0.0900269,0.0700073,0.1099854,0.1099854   c0.0500488,0.0200195,0.1000366,0.0499878,0.1500244,0.0800171c-0.0599976-0.3099976-0.1400146-0.6199951-0.2399902-0.9100342   c-0.2600098-0.7399902-0.5599976-1.289978-1.3400269-1.5299683c-0.3099976-0.0900269-0.4899902-0.2200317-0.6399536-0.5100098   c-0.1400146-0.3200073-0.0700073-0.710022-0.1500244-1.039978C54.789978,84.5768433,54.6599731,84.2068481,54.5,83.836853   c-0.2399902-0.5700073-0.5100098-1.1500244-0.6300049-1.7600098c-0.1300049-0.7299805-0.1900024-1.5100098-0.539978-2.1900024   c-0.3600464-0.6799927-0.8800049-1.2600098-1.2600098-1.9400024c-0.1400146-0.25-0.2700195-0.5-0.4000244-0.75   c0-0.0100098,0-0.0100098-0.0100098-0.0100098c-0.1199951-0.1499634-1.0099487-0.6099854-1.2299805-0.6399536   C49.9000244,76.4768677,48.5,76.1968384,48.0499878,76.4568481c-0.2299805,0.1300049-0.6199951,0.2999878-0.8099976,0.0100098   c-0.1099854-0.1799927-0.1699829-1.6900024-0.5599976-1.5499878c-0.2600098,0.0999756-0.4899902,0.1499634-0.7700195,0.0899658   c-0.6699829-0.1199951-0.6399536-1.0299683-0.789978-1.5199585c-0.039978-0.1500244,0.4700317-0.2200317,0.5200195-0.0400391   c0.1400146,0.4700317,0.1300049,1.5200195,0.9099731,1.2300415c0.1799927-0.0700073,0.3900146-0.0700073,0.5800171,0   c0.3200073,0.1199951,0.4400024,0.6899414,0.4799805,0.9599609c0.0499878,0.2399902,0.210022,0.5900269-0.0299683,0.7299805   c0.0799561-0.0499878,0.1599731-0.0999756,0.25-0.1299438c0.789978-0.2400513,1.8299561-0.0599976,2.6399536,0.0599976   c0.4100342,0.0499878,0.5200195,0.2299805,0.8700562,0.3599854c0.0199585,0,0.039978,0.0100098,0.0599976,0.0200195   c-0.0200195-0.0400391-0.0400391-0.0800171-0.0599976-0.1100464c-0.2400513-0.4099731-0.6600342-0.6900024-0.8700562-1.1199951   c-0.5299683-1.0800171,0.7300415-1.8200073,1.4700317-2.3900146c0.3200073-0.2399902,0.6500244-0.3999634,0.7399902-0.8299561   C52.789978,71.6868286,52.5,71.3168335,52.8499756,70.8468628c0.2000122-0.2700195,0.6300049-0.4700317,0.710022-0.8099976   c0.0700073-0.2900391,0.0800171-0.5800171,0.0499878-0.8699951c-0.0299683-0.3699951-0.0700073-0.7300415-0.1300049-1.0900269   c-0.5299683-0.5700073-1.0499878-0.6799927-0.9699707-1.5499878c0.0599976-0.7600098,0.1900024-1.5499878,0.4599609-2.2600098   c0.3100586-0.8499756,0.9200439-1.5299683,1.6000366-2.1099854c0.3800049-0.3200073,1.1499634-0.7399902,1.0499878-1.3200073   c-0.0499878-0.3499756-0.1599731-0.6799927-0.2299805-1.0200195c-0.0300293-0.1699829,0.4899902-0.2199707,0.5199585-0.039978   c0.1200562,0.5499878,0.460022,1.2199707,0,1.7000122c-0.6999512,0.7399902-1.6499634,1.2699585-2.1499634,2.1900024   c-0.4299927,0.789978-0.6400146,1.7399902-0.7200317,2.6300049c-0.0199585,0.3199463-0.1099854,0.8199463,0.2200317,1.0599976   c0.2299805,0.1699829,0.4299927,0.3399658,0.6300049,0.5299683c0.0199585,0.0200195,0.0499878,0.0200195,0.0599976,0.0400391   c0.3099976,0.4199829,0.6900024,0.9099731,1.1400146,1.1799927c0.7299805,0.4499512,1.7199707,0.1699829,2.5199585,0.1399536   c0.5599976-0.0099487,1.1000366,0.1400146,1.6700439,0.0800171c1.1599731-0.1400146,2.2799683-0.4699707,3.3499756-0.9099731   c0.7999878-0.3300171,1.5599976-0.7399902,2.3599854-1.0500488c0.5300293-0.1999512,1.0700073-0.3099976,1.5900269-0.4799805   C66.7199707,66.836853,66.8599854,66.7868652,67,66.7368774c0.2000122-0.0900269,0.3900146-0.1900024,0.5800171-0.3200073   C68,66.1268311,68.3800049,66.1568604,68.8800049,66.2568359c0.6400146,0.1400146,1.6199951,0.6300049,2.1799927,0.0100098   c0.1199951-0.1300049,0.2399902-0.2799683,0.4099731-0.3599854c0.6300049-0.2999878,1.2200317-0.1099854,1.6900024-0.7200317   c0.5-0.6399536,1.4100342-1.3200073,1.6900024-2.0899658c0.1300049-0.3699951,0.3600464-0.5700073,0.6199951-0.6300049   c-0.2099609-0.3500366-0.4199829-0.7299805-0.4399414-1.1300049c-0.0200195-0.3800049,0.0299683-0.710022,0.1599731-1.0700073   c0.039978-0.1300049,0.2000122-0.5,0.1900024-0.7000122c0-0.0299683-0.0100098-0.0499878,0.0100098-0.0599976   c-0.0300293-0.0100098-0.0499878-0.0299683-0.0599976-0.0499878c-0.0599976-0.1599731-0.1199951-0.3200073-0.1799927-0.4899902   c-0.0400391-0.1000366-0.0700073-0.2000122-0.1199951-0.2999878c-0.1100464-0.2900391-0.2600098-0.5500488-0.4900513-0.7600098   c-0.5799561-0.5200195-1.0499878-0.9100342-0.8699951-1.7600098c0.0300293-0.1599731,0.0499878-0.3800049,0.2000122-0.4699707   c0.1900024-0.1100464,0.039978,0.0199585-0.0700073-0.1800537c-0.2199707-0.4099731-0.2600098-0.7299805-0.1300049-1.1699829   c0.0300293-0.0800171,0.1300049-0.3300171,0.2600098-0.5700073c-0.1300049,0.1300049-0.2600098,0.2600098-0.3900146,0.4100342   c-0.8200073,1.0100098-1.6599731,1.1399536-2.8200073,1.5599976c-0.6499634,0.2399902-1.2299805,0.5799561-1.9199829,0.6399536   c-0.6199951,0.0500488-1.0999756-0.1799927-1.7399902,0.0500488c-0.1599731,0.0599976-0.5999756-0.0500488-0.2799683-0.1600342   c0.4299927-0.1599731,0.8899536-0.2999878,1.3599854-0.2199707C69,56.1868286,69.6599731,55.8168335,70.4400024,55.5568237   c0.5900269-0.1900024,1.3699951-0.2799683,1.8699951-0.6799927c0.5300293-0.4299927,0.8599854-1.039978,1.3800049-1.4699707   c0.5100098-0.4199829,1.039978-0.5100098,1.0800171-1.2399902c0.0100098-0.2399902,0.039978-0.4000244,0.2399902-0.5500488   c0.5800171-0.4199829,1.0200195-1.0199585,1.4899902-1.5599976c0.0900269-0.1099854,0.5999756-0.0899658,0.460022,0.0800171   c-0.1700439,0.1799927-0.3300171,0.3800049-0.4900513,0.5700073c-0.25,0.2800293-0.5,0.5999756-0.7999878,0.8300171   c-0.0799561,0.0700073-0.2999878,0.1799927-0.3399658,0.2999878c-0.1100464,0.3200073,0.0599976,0.789978-0.2600098,1.0299683   c-0.1400146,0.1000366-0.2800293,0.2000122-0.4100342,0.3000488c0.0500488,0.0499878,0.0700073,0.1300049,0.0200195,0.25   c-0.2199707,0.4599609-0.6900024,0.9400024-0.5700073,1.4899902c0.0599976,0.2799683,0.2200317,0.4799805,0.3200073,0.7399902   c0,0.0100098,0,0.0200195-0.0100098,0.0200195c-0.5799561,0.7099609-0.1399536,1.4699707,0.4800415,2.039978   c0.3099976,0.2800293,0.4899902,0.5900269,0.6399536,0.9299927c0.0500488,0.1000366,0.0800171,0.1900024,0.1199951,0.2900391   c0.0700073,0.1599731,0.1200562,0.3199463,0.1900024,0.4899902c-0.0099487,0-0.0099487,0-0.0199585,0   c0.0899658,0.0999756,0.039978,0.3299561-0.0300293,0.5599976c-0.3300171,1.0899658-0.2199707,1.6599731,0.2700195,2.5799561   c0.2000122,0.0800171,0.3999634,0.2400513,0.5700073,0.460022c0.4199829,0.5200195,0.5299683,1.1699829,0.7699585,1.7800293   c0.3000488,0.7199707,0.6400146,1.4199829,0.8600464,2.1699829c0.1900024,0.6699829,0.4599609,0.9799805,1.0899658,1.3599854   c0.2999878,0.1699829,0.6000366,0.3400269,0.9100342,0.4799805c0.2999878,0.1400146-0.1300049,0.3900146-0.3400269,0.2900391   c-0.1499634,0.2799683-0.1300049,0.539978,0.0599976,0.7799683c0.1799927,0.1700439,0.3800049,0.2800293,0.6199951,0.3500366   c0.2600098,0.0799561,0.460022,0.1199951,0.710022,0.1300049c0.0800171,0.0099487,0.1599731,0,0.25,0   c0.0999756-0.0100098,0.1900024-0.0100098,0.289978-0.0200195c0.2700195-0.0300293,0.5400391-0.0499878,0.7999878-0.039978   c0.4500122,0.039978,0.6600342,0.1999512,0.6900024,0.5299683c0.2900391,0.289978,0.6199951,0.7200317,1.0500488,0.7600098   c0.4699707,0.039978,0.7399902-0.2600098,0.9499512-0.6300049c0.1100464-0.1900024,0.6000366-0.1199951,0.4700317,0.1300049   c-0.1500244,0.2600098-0.3400269,0.4699707-0.5700073,0.6199951c0.0200195,0.1300049,0.2299805,0.3599854,0.2700195,0.4700317   c0.0499878,0.1799927-0.0100098,0.3699951,0.0499878,0.5299683c0.1099854,0.3300171,1.0200195,0.4000244,1.3099976,0.4700317   c0.0100098,0,0.0800171,0.0199585,0.0800171,0.0499878c-0.0400391,0.2399902,0,0.5999756,0.2099609,0.7699585   c0.0800171,0.0599976,0.75,0.2600098,0.6500244,0.4800415c-0.25,0.539978-0.039978,1.1300049,0.1699829,1.7099609   c0.0499878-0.1099854,0.1199951-0.2299805,0.1699829-0.3499756c0.4100342-0.9400024,1.0200195-1.9799805,1.8800049-2.5900269   c0.3000488-0.2199707,0.3500366-0.2699585,0.1600342-0.6399536c-0.2300415-0.4400024-0.5-0.9200439-0.5599976-1.4400024   c-0.0499878-0.5300293-0.0200195-1.0599976,0.1799927-1.5700073c0.1400146-0.3300171,0.4299927-0.7200317,0.5-1.0599976   C90.5,67.6968384,90,66.7368774,89.7800293,65.9368286C89.6099854,65.3168335,89.5,64.7068481,89.3599854,64.0968628   c-0.039978,0.1099854-0.0799561,0.2099609-0.1099854,0.3399658c-0.1099854,0.5,0.0499878,0.8500366,0.210022,1.3099976   c0.1699829,0.460022-0.2800293,0.6400146-0.6300049,0.8500366c-0.1000366,0.0599976-0.5700073,0.0299683-0.460022-0.0400391   C89.0800171,66.1268311,89,66.1068726,88.7800293,65.3868408C88.5,64.4968262,89.2000122,63.8268433,89.0499878,62.9868774   c-0.0499878-0.1300049-0.0800171-0.25-0.1300049-0.3800049c-0.2399902-0.6000366-0.4599609-1.1300049-0.1799927-1.75   c0.460022-1.0300293,0.7399902-1.7800293,0.6099854-2.9400024c-0.0999756-0.9500122,0.1600342-1.5300293,0.6400146-2.3200073   c0.2999878-0.5100098,0.5300293-0.9899902,0.4500122-1.5900269c-0.0700073-0.5-0.25-0.9899902-0.210022-1.5   c0.0800171-1.0100098,0.4700317-1.9500122,0.6500244-2.9299927c0.1500244-0.789978,0.0499878-1.460022,0.039978-2.25   c0-0.3099976,0-0.6499634,0.1199951-0.9500122C91.2399902,45.8768311,91.5700073,45.5668335,91.539978,44.9868774z    M31.8300171,33.8168335c-0.0900269-0.1300049-0.0700073-0.2099609-0.0499878-0.2600098   c-0.0900269,0.0599976-0.4100342,0.1200562-0.460022,0c-0.1799927-0.3899536-0.1699829-1.2599487,0-1.6900024   c0.1799927-0.4399414,0.4799805-0.9499512,0.4099731-1.4399414c-0.0299683-0.2700195-0.0799561-0.4900513-0.039978-0.7700195   c0.0200195-0.1600342,0.539978-0.1500244,0.5200195-0.0400391C32.1099854,30.2768555,32.2700195,30.7768555,32,31.4468384   c-0.2000122,0.5-0.3900146,1.2900391-0.2199707,1.8699951c0.2799683,0.0100098,0.5099487,0.2700195,0.6699829,0.6400146   c0.2399902,0.5800171,0.3599854,1.3099976,0.1099854,1.9099731c-0.2399902,0.5800171-0.75,0.9900513-1.039978,1.5400391   c-0.0700073,0.1400146-0.5800171,0.1099854-0.5100098-0.0100098c0.4199829-0.7999878,1.1699829-1.2600098,1.1599731-2.2600098   C32.1599731,34.6868286,32.0900269,34.2168579,31.8300171,33.8168335z M26.3900146,33.296875   C26.039978,33.4668579,25.5,33.586853,25.25,33.9068604c-0.3400269,0.4400024,0.3699951,0.7099609,0.5999756,0.9500122   c0.3099976,0.3399658,0.1800537,1,0.2200317,1.4099731c0.0200195,0.1699829-0.5100098,0.210022-0.5200195,0.039978   c-0.0199585-0.289978,0.0800171-0.9699707-0.0999756-1.2199707c-0.1799927-0.2600098-0.5599976-0.3800049-0.710022-0.6500244   c-0.3699951-0.6300049,0.5300293-0.9499512,0.9899902-1.1499634c0.4700317-0.2200317,0.3900146-0.3300171,0.0599976-0.6400146   c-0.2099609-0.1900024-0.4099731-0.3800049-0.5799561-0.5999756C25,31.7668457,24.7000122,31.3868408,24.8499756,30.9968262   c0.1900024-0.4699707,0.6300049-0.7699585,1.0900269-0.9599609c0.1699829-0.0599976,0.5999756,0.0700073,0.289978,0.1900024   c-0.2999878,0.1199951-0.6900024,0.3399658-0.8099976,0.6499634c-0.2299805,0.5800171,0.2600098,1.1000366,0.6600342,1.4800415   C26.3499756,32.6068726,26.960022,33.0168457,26.3900146,33.296875z M36.7399902,46.2668457   c-1.2399902,0.5-1.8300171,1.0900269-2.4599609,2.210022c-0.2700195,0.4699707-0.5600586,0.9199829-0.9500122,1.2999878   c-0.3800049,0.3699951-0.8600464,0.710022-1.1500244,1.1699829c-0.6499634,1.0300293-0.1400146,1.9800415-0.2000122,3.0599976   c-0.0499878,0.8099976-0.3299561,1.1400146-1.0199585,1.5100098c-0.6900024,0.3800049-0.1500244,0.8400269,0.2299805,1.2600098   c0.4299927,0.4799805,0.8499756,0.960022,1.1300049,1.5299683c0.3300171,0.6700439-0.1400146,0.9000244-0.6600342,1.1900024   c-0.6799927,0.3900146-0.9499512,0.7300415-0.7299805,1.5C30.960022,61.0968628,31,61.2068481,30.9500122,61.2868652   C31.2399902,61.4668579,31.5,61.7368774,31.75,61.9568481c0.0999756,0.0800171-0.3699951,0.2000122-0.4899902,0.0900269   c-0.2000122-0.1600342-0.5200195-0.5-0.7900391-0.6400146c-0.0699463-0.0200195-0.1299438-0.0499878-0.1399536-0.1099854   c-0.0100098-0.0500488,0.0499878-0.0800171,0.1199951-0.1000366c-0.0100098-0.0599976-0.0200195-0.1099854-0.0400391-0.1599731   c-0.0999756-0.2600098-0.1499634-0.460022-0.1099854-0.7300415c0.0499878-0.3199463,0.3699951-0.5499878,0.6099854-0.7199707   c0.2400513-0.1599731,0.8900146-0.3499756,0.9800415-0.6400146c0.1199951-0.4299927-0.2300415-0.8999634-0.4800415-1.2199707   c-0.3299561-0.4299927-1.6399536-1.3900146-1.2699585-2.0100098c0.1099854-0.1900024,0.3800049-0.289978,0.5599976-0.3900146   c0.4899902-0.2600098,0.7199707-0.5499878,0.75-1.1300049C31.5,53.3568726,31.210022,52.5668335,31.3400269,51.7068481   c0.1399536-0.8900146,0.9599609-1.4000244,1.5299683-2.0100098c0.6600342-0.6900024,0.9299927-1.5999756,1.539978-2.3200073   c0.5400391-0.6399536,1.2800293-0.9699707,2.0500488-1.2699585C36.6199951,46.0368652,37.0599976,46.1468506,36.7399902,46.2668457   z M64.1599731,43.3768311c-0.3399658,0.4800415-0.8599854,0.9700317-0.7799683,1.6199951   c0.0800171,0.710022,0.4500122,1.3900146,0.4799805,2.1000366c0.0200195,0.5599976-0.2299805,0.7799683-0.4599609,1.25   c-0.210022,0.4199829-0.1100464,0.5800171-0.5100098,0.8999634c-0.1099854,0.0900269-0.5200195,0.0200195-0.5,0   c0.3800049-0.3099976,0.3599854-0.7099609,0.6400146-1.0999756c0.2999878-0.4299927,0.3699951-0.8499756,0.25-1.3599854   c-0.1500244-0.6500244-0.5900269-1.4899902-0.4000244-2.1600342c0.1300049-0.4299927,0.4099731-0.7299805,0.6599731-1.0899658   c0.210022-0.2999878,0.9200439-1.5,0.4299927-1.8500366c-0.1799927-0.1399536-0.3999634-0.1699829-0.4499512-0.4199829   c-0.2200317-1.0499878-0.0100098-2.2999878,0.2999878-3.3099976c0.039978-0.1300049,0.539978-0.0800171,0.5200195-0.039978   c-0.1900024,0.6099854-0.2900391,1.2399902-0.3300171,1.8800049c-0.0300293,0.4299927-0.1500244,1.1199951,0.0599976,1.5299683   c0.1400146,0.25,0.539978,0.2200317,0.5499878,0.5700073C64.6199951,42.3968506,64.4500122,42.9568481,64.1599731,43.3768311z    M73.5300293,43.2068481c-0.0100098,0.0200195-0.0400391,0.039978-0.0700073,0.0499878v0.2700195   c-0.0200195,0.1699829-0.5400391,0.1799927-0.5200195,0.039978c0-0.0999756,0-0.2399902,0.0100098-0.3699951   c-0.6099854-0.4299927-1.960022-1.5299683-1.6799927-2.2199707c0.1199951-0.3200073,0.5-0.3300171,0.8399658-0.25   c-0.1199951-0.7800293-0.4799805-1.5200195-0.8999634-2.1700439c-0.0900269-0.1299438,0.4099731-0.2199707,0.5-0.0999756   c0.4799805,0.7399902,0.8999634,1.5999756,0.9599609,2.4899902c0.0100098,0.1500244-0.3499756,0.1500244-0.4299927,0.1099854   c-0.7999878-0.3499756-0.2099609,0.6700439,0.0599976,0.9800415c0.2200317,0.25,0.460022,0.4899902,0.7200317,0.7099609   c0.0100098-0.0199585,0.0100098-0.039978,0.0199585-0.0599976c0.0700073-0.1199951,0.460022-0.1599731,0.5100098-0.0099487   C73.5999756,42.8168335,73.5800171,43.0768433,73.5300293,43.2068481z"
       id="path20" /></g></svg>