<?xml version="1.0" encoding="UTF-8" standalone="no"?>
<svg
   xmlns:dc="http://purl.org/dc/elements/1.1/"
   xmlns:cc="http://creativecommons.org/ns#"
   xmlns:rdf="http://www.w3.org/1999/02/22-rdf-syntax-ns#"
   xmlns:svg="http://www.w3.org/2000/svg"
   xmlns="http://www.w3.org/2000/svg"
   xmlns:sodipodi="http://sodipodi.sourceforge.net/DTD/sodipodi-0.dtd"
   xmlns:inkscape="http://www.inkscape.org/namespaces/inkscape"
   version="1.1"
   x="0px"
   y="0px"
   viewBox="0 0 100 100"
   enable-background="new 0 0 100 100"
   xml:space="preserve"
   id="svg4"
   sodipodi:docname="param.svg"
   inkscape:version="0.92.3 (2405546, 2018-03-11)"><metadata
     id="metadata10"><rdf:RDF><cc:Work
         rdf:about=""><dc:format>image/svg+xml</dc:format><dc:type
           rdf:resource="http://purl.org/dc/dcmitype/StillImage" /><dc:title></dc:title></cc:Work></rdf:RDF></metadata><defs
     id="defs8" /><sodipodi:namedview
     pagecolor="#ffffff"
     bordercolor="#666666"
     borderopacity="1"
     objecttolerance="10"
     gridtolerance="10"
     guidetolerance="10"
     inkscape:pageopacity="0"
     inkscape:pageshadow="2"
     inkscape:window-width="920"
     inkscape:window-height="480"
     id="namedview6"
     showgrid="false"
     inkscape:zoom="2.36"
     inkscape:cx="2.9661017"
     inkscape:cy="50"
     inkscape:window-x="0"
     inkscape:window-y="27"
     inkscape:window-maximized="0"
     inkscape:current-layer="svg4" /><path
     d="M85.987,16.353c0,0,0.905,2.33-1.36,3.015c-0.071-0.232-0.272-0.523-0.67-0.89c0,0,0.301,0.498,0.237,0.99  c-2.163,0.36-2.988-1.752-2.988-1.752c1.63-0.16,2.323-1.417,1.789-2.404c-0.534-0.989-1.364-0.535-1.364-0.535  c1.23,0.081,1.445,2.271-0.562,2.432c-2.003,0.16-2.884-1.63-2.884-1.63c2.35-0.882,1.575-3.795,1.575-3.795  c0.295,1.363-1.309,2.218-2.537,2.352c-1.229,0.134-2.298,0.936-2.298,0.936c-0.418-0.206-0.828-0.373-1.234-0.504  c-0.308-0.129-0.641-0.247-0.999-0.342c-1.755-0.464-4.406-0.477-7.072,2.104c-5.125,4.958-4.395,10.08-2.842,14.877  c0.596,1.839,1.675,4.159,2.898,6.668c-0.86-0.074-2.643-0.053-3.756,1.081c-1.497,1.523-0.481,3.822-0.481,3.822  c0.562-2.297,3.1-1.417,3.1-1.417c-1.63,0.962-1.016,2.994-1.016,2.994c0.428-2.005,2.163-1.657,2.163-1.657  c-1.735,1.978,0.35,3.153,0.35,3.153c-1.151-0.855-0.056-3.126,0.828-2.405c0.586,0.48,1.341,0.537,1.781,0.521  c0.689,1.47,1.309,2.866,1.761,4.091c-4.049,0.774-3.604,4.077-3.604,4.077c0.319-1.524,1.506-1.054,1.506-1.054  c-0.215,2.138-3.02,2.381-4.063,1.498c-1.042-0.882-0.748-2.084-0.748-2.084c-1.576,2.166,0.134,4.837,1.388,4.891  c1.258,0.053,3.761-1.381,4.802,0.758c0.344,0.704,0.097,1.341-0.443,1.886c-0.086,0.063-0.175,0.125-0.267,0.184  c-1.493,0.944-2.805,1.403-4.012,1.403c-0.005,0-0.011,0-0.016,0c-1.583-0.005-2.991-0.808-4.292-2.447  c-0.374-2.188-2.596-8.075-3.822-11.234c-1.257-3.233-1.338-9.62-1.338-9.62c0.856-0.668,1.177-1.496,1.31-2.325  c0.081-0.494-0.069-1.111-0.2-1.529c0.196,0.373,0.598,0.812,1.378,0.701c1.124-0.161,0.888-1.407,0.799-1.754  c0.096,0.45-0.199,1.056-0.799,1.006c-0.643-0.054-1.149-1.604-0.776-2.806c0.375-1.202-0.348-2.646-0.348-2.646  s0.703,1.108,1.584,1.535c0.001,0.002,1.03,1.023,1.938,0.515c0,0-0.792-0.095-1.157-0.358c0.021-0.002,0.045-0.004,0.068-0.008  c0.962-0.167,0.729-1.054,0.583-1.432c0.221,0.773-0.959,1.777-1.678-0.011c-0.775-1.924,0.668-3.607,0.668-3.607  c1.513-1.536,0.307-3.774-0.174-4.525c0.447,0.382,1.456,0.169,1.456,0.169s-1.496-0.16-1.149-1.684  c0.348-1.523-0.455-3.527-0.455-3.527c0.669,0.882,1.978,0.241,1.978,0.241c-1.763,0.106-2.618-2.94-2.618-2.94  c0.695,0.561,1.817,0.133,1.817,0.133c-1.31,0.214-3.047-2.538-3.047-2.538c0.562-0.481,0.429-1.55,0.429-1.55  c-0.429,1.175-1.605,0.935-1.605,0.935c0.509-0.748-0.133-2.111-0.133-2.111c-0.134,1.47-1.175,1.497-1.175,1.497  c0.453-1.016-0.803-1.977-0.803-1.977c0.535,0.694,0.241,1.576-0.401,1.549c-0.641-0.026-2.671-0.006-4.462,0  c-2.051,0.007-2.525,1.812-2.889,2.066c-0.363,0.254-0.545,0.182-0.545,0.182c-2.76,0-3.813,0.835-3.813,0.835l-0.836,0.146  c-0.655,2.618,0.682,4.753,1.062,5.291c-1.322,0.083-2.566,0.09-3.277-0.533c-0.872-0.763,0.326-1.708,0.326-1.708  c-1.744-0.399-3.015,1.634-2.216,2.688c0.799,1.053,2.579,1.089,4.251,0.508c0.266-0.093,0.533-0.157,0.792-0.201  c-0.108,0.348-0.18,0.667-0.225,0.959c-0.09,0.382-0.088,0.769-0.048,1.111c0.057,0.729,0.281,1.109,0.281,1.109  c1.053-0.799,2.905-0.799,2.905-0.799c0.4,0.799-0.218,2.943-3.377,2.107c-3.16-0.835-5.485,2.034-5.485,2.034  s-2.796-0.98-4.322-2.979c-1.525-1.998-1.671-3.014-1.671-3.014l-0.108,0.29c-0.581-0.617-0.835-1.416-0.835-1.416l-0.11,0.327  c-0.472-0.69-1.199-1.852-1.199-3.451c0-1.598-1.961-3.378-1.961-3.378c-0.363-0.908-1.525-0.471-1.525-0.471  c0.617-0.109,0.908,0.581,0.908,0.581l-0.654,0.072c-1.017-0.799-1.853,0.183-1.853,0.183c0.618-0.364,0.836-0.183,1.235,0.072  c0.4,0.254-0.544,1.053-0.544,1.053c-0.945-0.654-1.562,0.582-1.562,0.582c0.581-0.436,1.052,0.072,1.052,0.072  c-1.052,1.489,0.51,3.814,1.344,4.322c0.836,0.509,1.38,0.763,1.853,1.417c0.473,0.654,0.253,1.417-0.254,1.126  c-0.509-0.291-0.327-1.163-0.327-1.163c-1.198,0.763-0.182,1.925-0.182,1.925c-0.145,2.289,2.725,2.688,2.725,2.688  c-1.889,0.109-1.598,1.671-1.598,1.671s0.072-0.763,0.943-0.727c0.872,0.037,1.671,1.199,1.671,1.199  c-0.617,1.998,0.763,2.434,0.763,2.434c-0.799-0.618,0.109-1.163,0.109-1.163c0.364,0.582,0.508,1.444,0.508,2.461  c0,1.018,0.872,1.235,0.872,1.235c0.056-0.469,0.437-0.436,0.437-0.436c0.291,0.618-0.799,1.271-1.38,0.981  c-0.582-0.291-0.291-0.981-0.291-0.981s-0.581,0.291-0.545,0.872c0.036,0.581,0.69,1.126,1.744,0.727  c1.054-0.399,1.707,0.146,1.707,0.146c-0.908-0.218-1.562,0.436-1.562,0.436s0.727,0.326,1.127,0.653  c0.4,0.327,1.271,0.473,1.271,0.473c-0.654-0.073-0.836,0.872-0.836,0.872s0.472-0.363,0.799-0.254  c0.328,0.109,0.037,0.69-0.908,0.763c-0.945,0.072-1.635-1.126-1.635-1.126s0.291,1.452,1.344,1.562  c1.054,0.109,1.744,0.182,1.744,0.182c-1.018,0.727-1.779,0.981-3.16,0.835c-1.38-0.145-0.872,0.254-0.872,0.254  s0.326,0.11-1.236,0.146s-0.362,0.327-0.362,0.327c-2.252,1.163-8.463-0.145-8.463-0.145c-1.89-0.727-4.36-0.291-4.36-0.291  c-1.852-0.291-1.453,1.78-1.453,1.78c0.074-0.695,0.509-0.835,1.018-0.944c0.508-0.109,0.327,0.98-0.654,1.344  c-0.98,0.363-0.545,1.453-0.545,1.453c0.146-0.944,0.896-0.436,0.896-0.436c-1.358,1.44-0.131,2.131,0.286,2.311  c-0.475-0.254-0.359-1.172,0.38-1.003c1.453,0.399,1.635,0.618,3.197,0.073S21.261,39,21.261,39c-0.653,0.291-1.38,1.453-1.38,1.453  c-0.435,0.218-1.125-0.291-1.125-0.291c0.544,1.998,2.433,0.872,2.433,0.872c1.999,0.98,3.27-1.126,3.27-1.126  c0.471,1.053-1.489,1.635-1.489,1.635c1.125,0.727,2.105-0.654,2.105-0.654c1.489,1.307,2.652-0.581,2.652-0.581  c-0.872,0.763-2.725-0.037-1.888-0.981c0.835-0.944,3.269,0.909,4.358,1.744c1.089,0.835,1.598-0.4,1.925-1.344  c0.327-0.943,1.598-1.453,1.598-0.291s-1.307,1.308-1.307,1.308s1.452,0.617,1.997-1.343c0.544-1.962,1.853-2.071,1.853-2.071  c0.071,1.017-0.728,1.562-0.728,1.562c1.163-0.036,1.2-0.799,1.2-0.799c2.179,6.683,6.356,6.611,8.644,9.48  c2.289,2.87,3.27,6.429,3.27,6.429c-2.723-0.655-5.049-3.014-5.049-3.014l0.146,0.508c-0.908,0.582-4.213,0.436-5.376,0.908  c-1.163,0.472-2.361-0.255-2.361-0.255c0.146,0.8,1.235,0.763,1.235,0.763c-2.651,1.09-3.887,0.509-3.887,0.509  C34.12,54.365,35.5,53.82,35.5,53.82s-1.054,0.399-2.434,1.925c-1.38,1.526-2.106,3.669-2.942,3.343  c-0.835-0.327-0.544-2.035-0.544-2.035c-0.508,0.037-0.327,1.381-0.327,1.381c-0.437-0.218-0.509-1.162-0.509-1.162  c-0.544,0.908,0.399,1.561,0.399,1.561c0.182,1.527,1.708,1.562,1.708,1.562c0,1.962-2.869,1.999-2.869,1.999  c1.234,2.07,4.14,0.146,4.285,0.87c0.146,0.729-1.633,1.493-1.198,1.745c0.435,0.255,1.235-1.523,1.525-1.126  c0.29,0.4-0.145,1.163-0.618,2.107c-0.472,0.945-0.581,1.744-0.182,1.197c0.399-0.544,1.054-1.707,1.089-1.017  c0.037,0.69-1.089,1.345-0.58,1.417c0.508,0.071,1.089-1.417,0.908-0.473c-0.182,0.945-1.599,1.707-0.617,1.599  c0.98-0.109,1.307-2.288,1.851-0.398c0.545,1.887-4.031,2.435-6.464,2.941c-2.435,0.509-2.798,3.052-2.798,3.052  c-1.017,0.834-0.327,1.67-0.327,1.67c-0.363-0.694,0.908-1.381,0.508-0.544c-0.726,1.054,0.363,1.924,0.363,1.924  c-0.545-1.38,1.562-2.543,1.525-0.727c-0.036,1.817,0.836,2.29,0.836,2.29c-0.472-0.764,0-1.346,0-1.346s1.815,0.51,2.47-0.979  c0.653-1.488,1.634-1.999,1.634-1.999c-0.943,0.654-0.326,1.563-0.326,1.563c-0.036,0.871-1.562,1.269-1.562,1.269  c1.708,0.729,2.398-0.615,2.398-0.615s3.269-0.472,3.85-2.254c0.582-1.778,2.361-2.724,2.361-2.724  c-0.437,1.745,0.726,2.507,0.726,2.507s-0.399-1.271,0.617-2.142c1.018-0.874,1.344-2.071,1.344-2.071  c-0.218,0.836,0.399,1.343,0.399,1.343c0.036-0.979,0.728-1.815-0.217-2.614c-0.945-0.799-1.199-1.961-1.199-1.961  c0.653,1.889,2.506,1.815,2.506,1.815c-2.869-1.055-1.163-4.794-0.109-5.993c1.054-1.198,1.163-1.996,1.163-1.996  c0,0.907,0.654,1.016,0.654,1.016c-0.619-1.708,1.742-1.38,1.742-1.38s-2.651,3.342-2.614,5.338c0.036,1.999-0.473,4.83-0.108,4.324  c0.362-0.51,0.145-3.379,0.399-0.836c0.253,2.542-1.053,4.177-0.328,3.521c0.728-0.652,0.545-2.288,0.799-0.907  c0.254,1.38-1.308,2.688-0.544,2.179c0.763-0.506,0.726-1.051,0.726-0.326c0,0.727-1.126,1.818-0.653,1.563s0.908-1.237,0.762-0.582  c-0.145,0.653-0.762,1.018-0.762,1.018c-0.909,0.69-2.398,0.836-2.398,0.836c1.999,0.507,3.415-0.765,3.415-0.765  c-0.074,1.526-2.106,2.509-2.106,2.509c2.47-0.548,2.651-2.326,2.651-2.326c1.307-0.509,1.488-2.287,1.488-2.287  c0.146,0.902,0.689,1.701,1.43,2.493c0.13,0.685,0.293,1.202,0.415,0.425c0.017,0.019,0.036,0.035,0.053,0.053  c0.136,0.762,0.318,1.414,0.448,0.495c0.13,0.662,0.291,1.124,0.408,0.304c0.011,0.009,0.021,0.02,0.032,0.029  c0.144,0.826,0.344,1.581,0.479,0.431c0.239,0.215,0.48,0.433,0.723,0.658c0.146,0.84,0.35,1.628,0.485,0.454  c0.154,0.151,0.309,0.303,0.463,0.458c0.146,0.928,0.382,1.981,0.528,0.559c0.04,0.045,0.081,0.09,0.121,0.137  c2.271,2.564-1.711,7.239-2.885,7.668c-1.177,0.429-1.925,1.925-1.897,3.555c0.026,1.63,1.282,2.137,1.282,2.137  c-0.695-0.989-0.053-3.715,0.32-1.362c0.375,2.352,2.378,2.169,2.378,2.169c-1.549-1.491,0.748-2.09,0.882-1.286  c0.348,1.763,2.484,1.202,2.484,1.202c-1.336-0.349-1.148-1.497-1.148-1.497c1.282-1.202,2.058-2.726,2.058-2.726  s1.097-0.106,1.23-1.335c0.133-1.229,1.442-3.343,1.442-3.343c-0.08,1.017,0.694,1.579,1.095,1.818  c0.107,1.041-0.748,1.524-0.748,1.524c1.363-0.188,1.631-0.963,1.631-0.963s-0.214-0.801,0.106-1.897  c0.32-1.096-0.614-1.924-0.614-1.924c1.389,0.16,1.896,1.924,1.896,1.924c0.882-2.458-1.015-3.981-1.015-3.981  c1.95-0.161,2.618,1.656,2.618,1.656c0.855-1.417-0.32-2.458-0.32-2.458c1.816-0.855,1.737-2.565,1.737-2.565  c-2.139,1.604-4.355-0.161-4.355-0.161c1.015-0.883,3.071-1.04,3.071-1.04c-0.961,0.051-1.549-0.884-1.549-0.884  c-0.32-0.295-0.588-0.856-0.588-0.856c-1.148,0.242-4.008-0.907-2.672-2.109s2.699,0.802,2.699,0.802  c-0.055-2.11-3.073-2.806-3.073-2.806c1.79-0.534,2.03-3.021,2.03-3.021c-0.694,1.041-1.523,1.364-2.753,1.151  c-1.228-0.217-0.988-2.007,0.055-2.301c1.042-0.293,1.175,1.096,1.175,1.096c1.363-1.389,0.055-2.271,0.055-2.271  c1.816-0.479,1.255-2.618,1.255-2.618c0.32,1.311-1.523,2.512-2.244,1.523c-0.721-0.989,0.053-1.71,0.882-2.672  c0.747-0.868,0.862-2.003,0.879-2.219c1.247,1.083,2.801,1.857,4.69,1.857c1.526,0,3.272-0.504,5.254-1.759  c0.552-0.349,1.197-0.867,1.783-1.622c4.762,0.819,7.888-1.575,7.888-1.575c-2.137,0.748-2.938,0.187-2.938,0.187  c0.134-0.294,0.429-0.962,0.429-0.962c2.644,0.134,2.725-2.379,2.725-2.379c-0.534,1.603-2.512,1.951-2.512,1.951  c0.882-3.581-2.484-5.452-2.484-5.452c0.134-2.032-2.512-3.101-2.512-3.101s-0.046-0.065-0.125-0.179  c-0.605-1.595-1.432-3.397-2.325-5.25c0.08-1.344,0.952-2.373,0.952-2.373c-3.526-3.554,1.846-4.516,2.486-3.153  c0.642,1.363-1.229,2.886-1.229,2.886c3.153-0.401,3.713-5.933-0.134-5.826c-2.818,0.078-4.158,2.087-4.676,3.159  c-1.081-2.229-2.058-4.359-2.575-5.951c-1.574-4.865-1.746-8.659,2.257-12.532c1.507-1.456,3.128-1.98,4.825-1.557  c0.508,0.125,0.952,0.319,1.313,0.512c0.016,0.43,0.067,1.209,0.245,2.074c0.268,1.309-0.267,1.79-0.777,2.244  c-0.506,0.454-1.681,0.375-1.843-0.828c-0.16-1.202,1.792-1.817,1.792-1.817s-1.524-0.054-2.354,1.095  c-0.828,1.149-0.133,3.448,1.658,3.982s2.993-1.978,2.993-1.978s1.189,0.549,1.202,2.352c0.012,1.791-2.298,2.752-2.619,1.817  c-0.319-0.935,0.668-1.283,0.668-1.283c-1.23-0.534-2.326,0.535-2.004,1.978c0.321,1.443,2.485,1.656,2.485,1.656  c-0.027,4.543,3.287,3.448,3.287,3.448c-0.989,0.133-1.363-0.936-1.39-1.791c-0.027-0.854,0.72-1.256,1.281-1.095  c0.562,0.16,1.283,1.576,2.992,0.828c1.713-0.749,1.524-1.951,1.524-1.951c2.377-1.844-0.026-4.196-0.026-4.196  c0.372-0.988,1.817-1.469,2.646-0.48c0.829,0.988-1.068,2.645-1.068,2.645c0.802,0.16,2.056-0.936,2.298-2.299  c0.24-1.362-1.229-2.886-1.229-2.886C87.511,19.346,85.987,16.353,85.987,16.353z M42.617,15.709l-0.717,0.051  C41.899,15.76,42.234,14.886,42.617,15.709z M42.184,17.221c-0.361,0.031-0.284-0.742-0.284-0.742h0.842  C42.742,16.479,42.545,17.191,42.184,17.221z M43.418,17.458c-0.466,0.003-0.449-0.959-0.449-0.959s0.491,0.071,0.714,0.117  C43.905,16.663,43.886,17.455,43.418,17.458z M43.86,15.586c-0.014,0.181-0.491,0.165-0.919,0.118c0,0-0.123-0.687,0.433-0.743  C43.929,14.906,43.875,15.405,43.86,15.586z M47.959,9.759c0.165-1.064,2.041,0,2.041,0H47.959z"
     id="path2"
     style="fill:#ffffff" /></svg>