<?xml version="1.0" encoding="UTF-8" standalone="no"?>
<svg
   xmlns:dc="http://purl.org/dc/elements/1.1/"
   xmlns:cc="http://creativecommons.org/ns#"
   xmlns:rdf="http://www.w3.org/1999/02/22-rdf-syntax-ns#"
   xmlns:svg="http://www.w3.org/2000/svg"
   xmlns="http://www.w3.org/2000/svg"
   xmlns:sodipodi="http://sodipodi.sourceforge.net/DTD/sodipodi-0.dtd"
   xmlns:inkscape="http://www.inkscape.org/namespaces/inkscape"
   version="1.1"
   x="0px"
   y="0px"
   viewBox="0 0 100 100"
   enable-background="new 0 0 100 100"
   xml:space="preserve"
   id="svg22"
   sodipodi:docname="start.svg"
   inkscape:version="0.92.3 (2405546, 2018-03-11)"><metadata
     id="metadata28"><rdf:RDF><cc:Work
         rdf:about=""><dc:format>image/svg+xml</dc:format><dc:type
           rdf:resource="http://purl.org/dc/dcmitype/StillImage" /><dc:title></dc:title></cc:Work></rdf:RDF></metadata><defs
     id="defs26" /><sodipodi:namedview
     pagecolor="#ffffff"
     bordercolor="#666666"
     borderopacity="1"
     objecttolerance="10"
     gridtolerance="10"
     guidetolerance="10"
     inkscape:pageopacity="0"
     inkscape:pageshadow="2"
     inkscape:window-width="920"
     inkscape:window-height="480"
     id="namedview24"
     showgrid="false"
     inkscape:zoom="2.36"
     inkscape:cx="2.9661017"
     inkscape:cy="50"
     inkscape:window-x="0"
     inkscape:window-y="27"
     inkscape:window-maximized="0"
     inkscape:current-layer="svg22" /><g
     id="g20"
     style="fill:#ffffff"><path
       d="m 49.661,12.225 h 0.007 C 51.78,12.221 53.496,10.498 53.493,8.383 53.488,6.274 51.768,4.558 49.652,4.558 48.628,4.56 47.666,4.961 46.944,5.686 c -0.723,0.726 -1.119,1.689 -1.117,2.712 0.004,2.11 1.723,3.827 3.834,3.827 z M 49.07,7.803 c 0.157,-0.158 0.366,-0.245 0.59,-0.245 0.458,0 0.833,0.373 0.833,0.831 0,0.46 -0.372,0.835 -0.831,0.836 l -10e-4,1.5 v -1.5 C 49.202,9.225 48.828,8.852 48.828,8.392 48.827,8.169 48.913,7.96 49.07,7.803 Z"
       id="path2"
       inkscape:connector-curvature="0"
       style="fill:#ffffff" /><path
       d="m 17.479,59.076 c 0.001,0 0.002,0 0.003,0 l 19.339,-0.039 c 0.024,0 0.046,-0.006 0.069,-0.007 0.077,-0.004 0.154,-0.009 0.231,-0.024 0.1,-0.021 0.196,-0.051 0.287,-0.09 0.002,-10e-4 0.004,-10e-4 0.006,-0.002 l 12.536,-5.43 12.556,5.38 c 0.182,0.078 0.382,0.122 0.592,0.122 10e-4,0 0.002,0 0.003,0 l 18.715,-0.035 c 0.828,-0.002 1.499,-0.675 1.497,-1.503 -0.002,-0.827 -0.673,-1.497 -1.5,-1.497 -0.001,0 -0.002,0 -0.003,0 L 63.407,55.985 57.425,53.423 57.37,25.274 c 0,-0.154 -0.031,-0.3 -0.074,-0.44 1.053,-1.511 1.675,-3.345 1.671,-5.323 -0.006,-2.729 -1.287,-5.418 -3.426,-7.192 -0.639,-0.529 -1.584,-0.441 -2.112,0.197 -0.529,0.637 -0.441,1.583 0.196,2.112 1.44,1.195 2.338,3.069 2.342,4.89 0.006,3.477 -2.816,6.311 -6.293,6.318 -0.004,0 -0.008,0 -0.012,0 -3.471,0 -6.299,-2.821 -6.306,-6.293 -0.004,-2.09 1.026,-4.042 2.754,-5.223 0.684,-0.467 0.86,-1.4 0.393,-2.084 -0.467,-0.684 -1.399,-0.861 -2.084,-0.393 -2.549,1.741 -4.068,4.621 -4.062,7.706 0.004,1.94 0.606,3.742 1.629,5.233 -0.061,0.164 -0.099,0.339 -0.098,0.524 l 0.055,28.379 -5.436,2.354 -19.028,0.038 c -0.829,0.002 -1.499,0.675 -1.497,1.503 -0.002,0.826 0.67,1.496 1.497,1.496 z M 54.391,36.137 c -1.001,1.076 -3.906,3.658 -9.475,4.714 l -0.008,-4.304 c 4.652,-0.81 7.692,-2.584 9.476,-4.015 z m -9.472,6.739 c 4.656,-0.813 7.696,-2.591 9.476,-4.023 l 0.007,3.603 c -0.989,1.068 -3.892,3.663 -9.475,4.725 z m 4.742,-14.041 c 0.006,0 0.012,0 0.018,0 1.714,-0.003 3.315,-0.48 4.694,-1.296 l 0.005,2.279 c -1.012,1.084 -3.918,3.652 -9.475,4.703 L 44.89,27.503 c 1.397,0.84 3.026,1.332 4.771,1.332 z m -4.729,20.37 c 4.66,-0.816 7.699,-2.599 9.477,-4.031 l 0.014,6.963 -3.884,-1.664 c -0.38,-0.162 -0.808,-0.162 -1.187,0.002 l -4.413,1.911 z"
       id="path4"
       inkscape:connector-curvature="0"
       style="fill:#ffffff" /><path
       d="m 28.106,62.969 c -0.001,0 -0.002,0 -0.003,0 l -10.613,0.02 c -0.828,0.002 -1.499,0.675 -1.497,1.503 10e-4,0.827 0.673,1.497 1.5,1.497 0.001,0 0.002,0 0.003,0 l 10.613,-0.02 c 0.828,-0.002 1.499,-0.675 1.497,-1.503 -0.002,-0.827 -0.673,-1.497 -1.5,-1.497 z"
       id="path6"
       inkscape:connector-curvature="0"
       style="fill:#ffffff" /><path
       d="m 81.826,62.871 c -10e-4,0 -0.002,0 -0.003,0 l -9.99,0.02 c -0.828,0.002 -1.499,0.675 -1.497,1.503 0.002,0.827 0.673,1.497 1.5,1.497 0.001,0 0.002,0 0.003,0 l 9.99,-0.02 c 0.828,-0.002 1.499,-0.675 1.497,-1.503 -0.002,-0.827 -0.673,-1.497 -1.5,-1.497 z"
       id="path8"
       inkscape:connector-curvature="0"
       style="fill:#ffffff" /><path
       d="m 66.875,67.893 c -0.001,0 -0.002,0 -0.003,0 -0.828,0.002 -1.499,0.675 -1.497,1.503 l 0.047,24.133 c 0.002,0.827 0.673,1.497 1.5,1.497 0.001,0 0.002,0 0.003,0 0.828,-0.002 1.499,-0.675 1.497,-1.503 L 68.375,69.39 c -0.002,-0.828 -0.673,-1.497 -1.5,-1.497 z"
       id="path10"
       inkscape:connector-curvature="0"
       style="fill:#ffffff" /><path
       d="m 67.523,64.739 c 0.744,-0.364 1.052,-1.263 0.687,-2.007 -0.363,-0.743 -1.261,-1.052 -2.007,-0.687 L 49.905,70.031 33.574,62.108 c -0.745,-0.362 -1.643,-0.052 -2.004,0.695 -0.361,0.745 -0.05,1.643 0.695,2.004 l 16.223,7.87 0.041,20.881 c 10e-4,0.827 0.673,1.497 1.5,1.497 10e-4,0 0.002,0 0.003,0 0.829,-0.002 1.499,-0.675 1.497,-1.503 L 51.488,72.596 Z"
       id="path12"
       inkscape:connector-curvature="0"
       style="fill:#ffffff" /><path
       d="m 32.931,67.959 c -10e-4,0 -0.002,0 -0.003,0 -0.829,0.002 -1.499,0.675 -1.497,1.503 l 0.047,24.131 c 10e-4,0.827 0.673,1.497 1.5,1.497 10e-4,0 0.002,0 0.003,0 0.829,-0.002 1.499,-0.675 1.497,-1.503 L 34.431,69.456 c -10e-4,-0.827 -0.673,-1.497 -1.5,-1.497 z"
       id="path14"
       inkscape:connector-curvature="0"
       style="fill:#ffffff" /><path
       d="m 13.495,64.129 c -10e-4,0 -0.002,0 -0.003,0 -0.828,0.002 -1.499,0.675 -1.497,1.503 0.001,0.489 -0.188,0.95 -0.534,1.297 -0.346,0.348 -0.806,0.539 -1.293,0.54 -10e-4,0 -10e-4,0 -0.002,0 -1.011,0 -1.834,-0.821 -1.836,-1.831 L 8.313,56.972 c -0.002,-1.011 0.818,-1.835 1.83,-1.837 10e-4,0 0.002,0 0.004,0 1.008,0 1.831,0.82 1.833,1.829 0.002,0.827 0.673,1.497 1.5,1.497 10e-4,0 0.002,0 0.003,0 0.828,-0.002 1.499,-0.675 1.497,-1.503 -0.006,-2.662 -2.172,-4.823 -4.833,-4.823 -0.003,0 -0.007,0 -0.011,0 -2.665,0.006 -4.829,2.179 -4.823,4.843 l 0.017,8.666 c 0.006,2.662 2.174,4.825 4.838,4.825 0.001,0 0.003,0 0.005,0 1.291,-0.003 2.503,-0.508 3.415,-1.423 0.911,-0.915 1.411,-2.13 1.408,-3.42 -0.003,-0.827 -0.674,-1.497 -1.501,-1.497 z"
       id="path16"
       inkscape:connector-curvature="0"
       style="fill:#ffffff" /><path
       d="m 93.979,56.806 c -0.006,-2.662 -2.176,-4.825 -4.84,-4.825 -0.002,0 -0.004,0 -0.005,0 -1.291,0.003 -2.503,0.508 -3.414,1.423 -0.911,0.915 -1.412,2.13 -1.409,3.42 0.002,0.827 0.673,1.497 1.5,1.497 10e-4,0 0.002,0 0.003,0 0.829,-0.002 1.499,-0.675 1.497,-1.503 -0.001,-0.489 0.188,-0.95 0.534,-1.297 0.346,-0.348 0.806,-0.539 1.294,-0.54 0,0 0.001,0 0.002,0 1.012,0 1.836,0.821 1.838,1.831 l 0.016,8.666 c 0.002,1.011 -0.818,1.835 -1.829,1.837 -0.002,0 -0.003,0 -0.004,0 -1.009,0 -1.831,-0.82 -1.833,-1.829 -0.002,-0.827 -0.673,-1.497 -1.5,-1.497 -10e-4,0 -0.002,0 -0.003,0 -0.829,0.002 -1.499,0.675 -1.497,1.503 0.006,2.662 2.173,4.823 4.833,4.823 0.003,0 0.007,0 0.01,0 2.665,-0.006 4.829,-2.179 4.823,-4.843 z"
       id="path18"
       inkscape:connector-curvature="0"
       style="fill:#ffffff" /></g></svg>