<?xml version="1.0" encoding="UTF-8" standalone="no"?>
<svg
   xmlns:dc="http://purl.org/dc/elements/1.1/"
   xmlns:cc="http://creativecommons.org/ns#"
   xmlns:rdf="http://www.w3.org/1999/02/22-rdf-syntax-ns#"
   xmlns:svg="http://www.w3.org/2000/svg"
   xmlns="http://www.w3.org/2000/svg"
   xmlns:sodipodi="http://sodipodi.sourceforge.net/DTD/sodipodi-0.dtd"
   xmlns:inkscape="http://www.inkscape.org/namespaces/inkscape"
   data-name="Layer 1"
   viewBox="0 0 64 64"
   x="0px"
   y="0px"
   version="1.1"
   id="svg52"
   sodipodi:docname="vers_gos.svg"
   inkscape:version="0.92.3 (2405546, 2018-03-11)">
  <metadata
     id="metadata58">
    <rdf:RDF>
      <cc:Work
         rdf:about="">
        <dc:format>image/svg+xml</dc:format>
        <dc:type
           rdf:resource="http://purl.org/dc/dcmitype/StillImage" />
        <dc:title>map-survey-location-show-position-direction-symbol</dc:title>
      </cc:Work>
    </rdf:RDF>
  </metadata>
  <defs
     id="defs56" />
  <sodipodi:namedview
     pagecolor="#ffffff"
     bordercolor="#666666"
     borderopacity="1"
     objecttolerance="10"
     gridtolerance="10"
     guidetolerance="10"
     inkscape:pageopacity="0"
     inkscape:pageshadow="2"
     inkscape:window-width="920"
     inkscape:window-height="480"
     id="namedview54"
     showgrid="false"
     inkscape:zoom="3.6875"
     inkscape:cx="1.8983051"
     inkscape:cy="32"
     inkscape:window-x="0"
     inkscape:window-y="27"
     inkscape:window-maximized="0"
     inkscape:current-layer="svg52" />
  <title
     id="title2">map-survey-location-show-position-direction-symbol</title>
  <path
     d="M61,2H3A1,1,0,0,0,2,3V61a1,1,0,0,0,1,1H61a1,1,0,0,0,1-1V3A1,1,0,0,0,61,2ZM60,48H32.5A8.51,8.51,0,0,1,24,39.5c0-3.92,1.83-8.5,7-8.5h3a9,9,0,0,0,0-18H32c-5.49,0-7.69-4.48-8-9H60ZM4,60V4H22c.35,6.71,4.18,11,10,11h2a7,7,0,0,1,0,14H31c-5.38,0-9,4.22-9,10.5A10.51,10.51,0,0,0,32.5,50H60V60Z"
     id="path4"
     style="fill:#008000" />
  <path
     d="M16,11a5,5,0,1,0-5,5A5,5,0,0,0,16,11Zm-5,3a3,3,0,1,1,3-3A3,3,0,0,1,11,14Z"
     id="path6"
     style="fill:#008000" />
  <path
     d="M29,25h6a1,1,0,0,0,.89-1.45l-3-6a1,1,0,0,0-1.78,0l-3,6A1,1,0,0,0,29,25Zm3-4.76L33.38,23H30.62Z"
     id="path8"
     style="fill:#008000" />
  <path
     d="M39,36H33a1,1,0,0,0-1,1v6a1,1,0,0,0,1,1h6a1,1,0,0,0,1-1V37A1,1,0,0,0,39,36Zm-1,6H34V38h4Z"
     id="path10"
     style="fill:#008000" />
  <polygon
     points="55 28 53 28 53 31 50 31 50 33 53 33 53 36 55 36 55 33 58 33 58 31 55 31 55 28"
     id="polygon12"
     style="fill:#008000" />
  <path
     d="M48.11,15.45A1,1,0,0,0,49,16h4a1,1,0,0,0,.89-.55l2-4a1,1,0,0,0,0-.9l-2-4A1,1,0,0,0,53,6H49a1,1,0,0,0-.89.55l-2,4a1,1,0,0,0,0,.9ZM49.62,8h2.76l1.5,3-1.5,3H49.62l-1.5-3Z"
     id="path14"
     style="fill:#008000" />
  <rect
     x="6"
     y="21"
     width="4"
     height="2"
     id="rect16"
     style="fill:#008000" />
  <rect
     x="12"
     y="21"
     width="4"
     height="2"
     id="rect18"
     style="fill:#008000" />
  <rect
     x="18"
     y="21"
     width="4"
     height="2"
     id="rect20"
     style="fill:#008000" />
  <rect
     x="20"
     y="25"
     width="2"
     height="4"
     id="rect22"
     style="fill:#008000" />
  <rect
     x="18"
     y="31"
     width="4"
     height="2"
     id="rect24"
     style="fill:#008000" />
  <rect
     x="14"
     y="31"
     width="2"
     height="4"
     id="rect26"
     style="fill:#008000" />
  <rect
     x="14"
     y="37"
     width="2"
     height="4"
     id="rect28"
     style="fill:#008000" />
  <rect
     x="14"
     y="43"
     width="2"
     height="4"
     id="rect30"
     style="fill:#008000" />
  <rect
     x="14"
     y="49"
     width="4"
     height="2"
     id="rect32"
     style="fill:#008000" />
  <polygon
     points="24.95 50.29 22.83 52.41 20.71 50.29 19.29 51.71 21.41 53.83 19.29 55.95 20.71 57.36 22.83 55.24 24.95 57.36 26.36 55.95 24.24 53.83 26.36 51.71 24.95 50.29"
     id="polygon34"
     style="fill:#008000" />
  <rect
     x="56"
     y="53"
     width="2"
     height="2"
     id="rect36"
     style="fill:#008000" />
  <rect
     x="52"
     y="53"
     width="2"
     height="2"
     id="rect38"
     style="fill:#008000" />
  <rect
     x="48"
     y="53"
     width="2"
     height="2"
     id="rect40"
     style="fill:#008000" />
  <rect
     x="44"
     y="53"
     width="2"
     height="2"
     id="rect42"
     style="fill:#008000" />
  <rect
     x="40"
     y="53"
     width="2"
     height="2"
     id="rect44"
     style="fill:#008000" />
  <rect
     x="36"
     y="53"
     width="2"
     height="2"
     id="rect46"
     style="fill:#008000" />
  <rect
     x="32"
     y="53"
     width="2"
     height="2"
     id="rect48"
     style="fill:#008000" />
  <rect
     x="28"
     y="53"
     width="2"
     height="2"
     id="rect50"
     style="fill:#008000" />
</svg>
