<?xml version="1.0" encoding="UTF-8" standalone="no"?>
<svg
   xmlns:dc="http://purl.org/dc/elements/1.1/"
   xmlns:cc="http://creativecommons.org/ns#"
   xmlns:rdf="http://www.w3.org/1999/02/22-rdf-syntax-ns#"
   xmlns:svg="http://www.w3.org/2000/svg"
   xmlns="http://www.w3.org/2000/svg"
   xmlns:sodipodi="http://sodipodi.sourceforge.net/DTD/sodipodi-0.dtd"
   xmlns:inkscape="http://www.inkscape.org/namespaces/inkscape"
   version="1.1"
   x="0px"
   y="0px"
   viewBox="0 0 24.481678 25.207213"
   xml:space="preserve"
   id="svg28"
   sodipodi:docname="nouvelle.svg"
   inkscape:version="0.92.3 (2405546, 2018-03-11)"
   width="24.481678"
   height="25.207212"><metadata
     id="metadata34"><rdf:RDF><cc:Work
         rdf:about=""><dc:format>image/svg+xml</dc:format><dc:type
           rdf:resource="http://purl.org/dc/dcmitype/StillImage" /><dc:title /></cc:Work></rdf:RDF></metadata><defs
     id="defs32" /><sodipodi:namedview
     pagecolor="#ffffff"
     bordercolor="#666666"
     borderopacity="1"
     objecttolerance="10"
     gridtolerance="10"
     guidetolerance="10"
     inkscape:pageopacity="0"
     inkscape:pageshadow="2"
     inkscape:window-width="920"
     inkscape:window-height="480"
     id="namedview30"
     showgrid="false"
     inkscape:zoom="0.59"
     inkscape:cx="-132.38177"
     inkscape:cy="76.279461"
     inkscape:window-x="0"
     inkscape:window-y="27"
     inkscape:window-maximized="0"
     inkscape:current-layer="svg28"
     fit-margin-top="5"
     fit-margin-left="5"
     fit-margin-right="5"
     fit-margin-bottom="5" /><style
     type="text/css"
     id="style2">
	.st0{fill:#663612;}
	.st1{fill:#10773C;}
	.st2{fill:#0D2D1A;}
	.st3{fill:#EDB503;}
	.st4{fill:#844109;}
	.st5{fill:#BA3C04;}
	.st6{fill:#66320A;}
	.st7{fill:none;}
</style><g
     id="g26"
     style="fill:#008000;opacity:0.338"
     transform="matrix(0.16909343,0,0,0.16909343,3.5868947,4.1433361)"><g
       id="g24"
       style="fill:#008000"><path
         d="M 26.8,67.9 C 25,57.2 22.6,47.7 20.1,39.8 17.6,32 15,25.8 12.7,21.8 10.4,17.8 8.6,15.9 8.4,16 c -0.3,0.2 1,2.3 2.9,6.5 1.8,4.1 4,10.3 6.1,18.1 2.1,7.8 4.2,17.2 5.8,27.8 1.3,8.2 2.2,17.1 3,26.4 h 4 C 29.3,85.4 28.3,76.3 26.8,67.9 Z"
         id="path4"
         inkscape:connector-curvature="0"
         style="fill:#008000" /><path
         d="m 46.3,71.2 c 1.2,-10.1 3.3,-19.1 5.9,-26.3 2.6,-7.2 5.8,-12.6 8.2,-16.1 2.5,-3.5 4.1,-5.3 3.9,-5.5 -0.2,-0.2 -2.2,1.3 -5.1,4.6 -2.9,3.3 -6.6,8.7 -9.6,16 -3.1,7.3 -5.5,16.5 -6.9,26.8 -1.1,7.5 -1.5,15.7 -1.3,24.2 h 4 c -0.4,-8.3 0,-16.3 0.9,-23.7 z"
         id="path6"
         inkscape:connector-curvature="0"
         style="fill:#008000" /><path
         d="M 64.7,66.8 C 63.3,56.5 60.9,47.3 57.8,40 c -3,-7.3 -6.7,-12.7 -9.6,-16 -2.9,-3.3 -4.9,-4.8 -5.1,-4.6 -0.2,0.2 1.4,2 3.9,5.5 2.5,3.5 5.6,8.9 8.2,16.1 2.6,7.2 4.7,16.1 5.9,26.3 1,8.5 1.4,17.9 0.7,27.7 h 4 C 66.3,85 65.9,75.5 64.7,66.8 Z"
         id="path8"
         inkscape:connector-curvature="0"
         style="fill:#008000" /><path
         d="M 76.9,90.5 C 74.5,86.8 72.1,83.2 69.8,79.9 65.1,73.3 60.4,67.6 56.3,63.1 54.2,60.8 52.4,58.8 50.6,57.1 48.9,55.4 47.2,54 45.8,53 42.9,51 41,50.5 40.9,50.7 c -0.1,0.3 1.5,1.2 3.9,3.5 2.5,2.2 5.5,6 9.3,10.8 3.8,4.8 8.1,10.5 12.6,17.1 2.3,3.3 4.5,6.8 6.8,10.5 0.5,0.8 1,1.6 1.4,2.3 h 4.5 c -0.7,-1.5 -1.6,-3 -2.5,-4.4 z"
         id="path10"
         inkscape:connector-curvature="0"
         style="fill:#008000" /><path
         d="m 72.2,53 c 4,-13.6 7.5,-21.6 7,-21.9 C 79,31 77.8,32.8 76,36.4 74.2,40 71.9,45.3 69.6,52.1 65.7,63 62,78 60.7,95 h 4 C 65.9,78.5 69,63.8 72.2,53 Z"
         id="path12"
         inkscape:connector-curvature="0"
         style="fill:#008000" /><path
         d="M 19.1,75.2 C 13.6,68.2 9.5,64.3 9.2,64.7 8.4,65.3 17.9,77.2 27.9,95 h 4.4 C 27.8,87 23.1,80.3 19.1,75.2 Z"
         id="path14"
         inkscape:connector-curvature="0"
         style="fill:#008000" /><path
         d="M 30.7,57.3 C 34.8,45.9 39.5,36 43.8,27.9 c 2.1,-4.1 4.1,-7.7 6.2,-10.7 2,-3 4,-5.4 5.8,-7.1 3.6,-3.5 6.3,-4.7 6.2,-5 -0.1,-0.1 -0.8,0 -2,0.6 -1.3,0.5 -3.1,1.6 -5.1,3.2 -2.1,1.7 -4.3,4 -6.6,7 -2.3,3 -4.5,6.6 -6.8,10.6 -4.7,8 -9.7,18 -14,29.5 -4.4,11.5 -8,24.7 -9.7,38.9 0,0 0,0 0,0.1 h 4 c 1.4,-13.7 4.8,-26.5 8.9,-37.7 z"
         id="path16"
         inkscape:connector-curvature="0"
         style="fill:#008000" /><path
         d="m 89,58.6 c -3.1,0.9 -7.6,2.3 -12.8,5.1 -2.6,1.4 -5.3,3.1 -8,5.4 -2.7,2.3 -5.2,5.1 -7.4,8.3 -2.2,3.3 -4.1,6.8 -5.9,10.6 -1,2.2 -1.9,4.5 -2.6,6.9 h 4.1 c 0.6,-1.8 1.2,-3.6 2,-5.3 1.6,-3.6 3.5,-7.1 5.4,-10.2 2,-3.1 4.2,-5.7 6.6,-7.9 2.4,-2.2 4.9,-4 7.2,-5.4 4.8,-2.9 9,-4.7 11.9,-6 2.9,-1.3 4.5,-2 4.5,-2.3 -0.1,-0.3 -1.9,0 -5,0.8 z"
         id="path18"
         inkscape:connector-curvature="0"
         style="fill:#008000" /><path
         d="M 44.9,85.9 C 42.7,82.5 40.4,79.5 38,76.9 35.6,74.3 33.2,72 30.8,70.1 26,66.3 21.3,64.4 18,63.7 14.6,63 12.7,63.4 12.7,63.6 c 0,0.3 1.8,0.5 4.8,1.6 3,1.1 7.2,3.2 11.4,7.1 2.2,1.9 4.3,4.2 6.5,6.8 2.2,2.6 4.3,5.5 6.3,8.8 1.4,2.2 2.6,4.6 3.7,7.1 h 4.2 c -1.3,-3.3 -3,-6.4 -4.7,-9.1 z"
         id="path20"
         inkscape:connector-curvature="0"
         style="fill:#008000" /><path
         d="m 49.8,75.5 c -3,-8.6 -6.2,-16 -9,-22.3 -1.4,-3.1 -2.7,-5.9 -3.9,-8.3 -1.2,-2.5 -2.6,-4.5 -4.1,-5.9 -0.7,-0.7 -1.5,-1.2 -2.2,-1.6 -0.7,-0.3 -1.3,-0.6 -1.9,-0.7 -0.6,-0.1 -1.1,0.1 -1.3,0.3 -0.2,0.2 -0.3,0.4 -0.2,0.4 0.1,0.1 0.5,-0.3 1.3,0.1 0.4,0.1 0.9,0.5 1.4,0.9 0.6,0.4 1.1,1 1.7,1.6 1.2,1.4 2.2,3.3 3.2,5.8 1,2.5 2.1,5.4 3.3,8.5 2.5,6.3 5.4,13.8 8.1,22.3 1.8,5.7 3.4,11.8 4.6,18.3 h 4 c -1.1,-6.9 -3,-13.4 -5,-19.4 z"
         id="path22"
         inkscape:connector-curvature="0"
         style="fill:#008000" /></g></g></svg>