<?xml version="1.0" encoding="UTF-8" standalone="no"?>
<svg
   xmlns:dc="http://purl.org/dc/elements/1.1/"
   xmlns:cc="http://creativecommons.org/ns#"
   xmlns:rdf="http://www.w3.org/1999/02/22-rdf-syntax-ns#"
   xmlns:svg="http://www.w3.org/2000/svg"
   xmlns="http://www.w3.org/2000/svg"
   xmlns:sodipodi="http://sodipodi.sourceforge.net/DTD/sodipodi-0.dtd"
   xmlns:inkscape="http://www.inkscape.org/namespaces/inkscape"
   version="1.1"
   x="0px"
   y="0px"
   viewBox="0 0 64 64"
   enable-background="new 0 0 64 64"
   xml:space="preserve"
   id="svg68"
   sodipodi:docname="planning.svg"
   inkscape:version="0.92.3 (2405546, 2018-03-11)"><metadata
     id="metadata74"><rdf:RDF><cc:Work
         rdf:about=""><dc:format>image/svg+xml</dc:format><dc:type
           rdf:resource="http://purl.org/dc/dcmitype/StillImage" /><dc:title></dc:title></cc:Work></rdf:RDF></metadata><defs
     id="defs72" /><sodipodi:namedview
     pagecolor="#ffffff"
     bordercolor="#666666"
     borderopacity="1"
     objecttolerance="10"
     gridtolerance="10"
     guidetolerance="10"
     inkscape:pageopacity="0"
     inkscape:pageshadow="2"
     inkscape:window-width="1600"
     inkscape:window-height="836"
     id="namedview70"
     showgrid="false"
     inkscape:zoom="3.6875"
     inkscape:cx="1.8983051"
     inkscape:cy="32"
     inkscape:window-x="0"
     inkscape:window-y="27"
     inkscape:window-maximized="1"
     inkscape:current-layer="svg68" /><g
     id="g66"
     style="fill:#00ff00"><g
       id="g64"
       style="fill:#00ff00"><g
         id="g4"
         style="fill:#00ff00"><path
           d="M 63,57 H 1 C 0.447,57 0,56.553 0,56 V 8 C 0,7.448 0.447,7 1,7 h 53.999 c 0.266,0 0.52,0.105 0.707,0.293 l 8.001,8 C 63.895,15.48 64,15.735 64,16 v 40 c 0,0.553 -0.447,1 -1,1 z M 2,55 H 62 V 16.414 L 54.585,9 H 2 Z"
           id="path2"
           inkscape:connector-curvature="0"
           style="fill:#00ff00" /></g><g
         id="g8"
         style="fill:#00ff00"><path
           d="m 63,17 h -8 c -0.553,0 -1,-0.448 -1,-1 0,-0.552 0.447,-1 1,-1 h 8 c 0.553,0 1,0.448 1,1 0,0.552 -0.447,1 -1,1 z"
           id="path6"
           inkscape:connector-curvature="0"
           style="fill:#00ff00" /></g><g
         id="g12"
         style="fill:#00ff00"><path
           d="m 55,17 c -0.553,0 -1,-0.448 -1,-1 V 8 c 0,-0.552 0.447,-1 1,-1 0.553,0 1,0.448 1,1 v 8 c 0,0.552 -0.447,1 -1,1 z"
           id="path10"
           inkscape:connector-curvature="0"
           style="fill:#00ff00" /></g><g
         id="g16"
         style="fill:#00ff00"><path
           d="m 12,53 c -0.553,0 -1,-0.447 -1,-1 V 12 c 0,-0.552 0.447,-1 1,-1 0.553,0 1,0.448 1,1 v 40 c 0,0.553 -0.447,1 -1,1 z"
           id="path14"
           inkscape:connector-curvature="0"
           style="fill:#00ff00" /></g><g
         id="g20"
         style="fill:#00ff00"><path
           d="M 59,53 H 12 c -0.553,0 -1,-0.447 -1,-1 0,-0.553 0.447,-1 1,-1 h 47 c 0.553,0 1,0.447 1,1 0,0.553 -0.447,1 -1,1 z"
           id="path18"
           inkscape:connector-curvature="0"
           style="fill:#00ff00" /></g><g
         id="g24"
         style="fill:#00ff00"><path
           d="M 8,15 H 5 C 4.447,15 4,14.552 4,14 4,13.448 4.447,13 5,13 h 3 c 0.553,0 1,0.448 1,1 0,0.552 -0.447,1 -1,1 z"
           id="path22"
           inkscape:connector-curvature="0"
           style="fill:#00ff00" /></g><g
         id="g28"
         style="fill:#00ff00"><path
           d="M 8,23 H 5 C 4.447,23 4,22.552 4,22 4,21.448 4.447,21 5,21 h 3 c 0.553,0 1,0.448 1,1 0,0.552 -0.447,1 -1,1 z"
           id="path26"
           inkscape:connector-curvature="0"
           style="fill:#00ff00" /></g><g
         id="g32"
         style="fill:#00ff00"><path
           d="M 8,31 H 5 C 4.447,31 4,30.552 4,30 4,29.448 4.447,29 5,29 h 3 c 0.553,0 1,0.448 1,1 0,0.552 -0.447,1 -1,1 z"
           id="path30"
           inkscape:connector-curvature="0"
           style="fill:#00ff00" /></g><g
         id="g36"
         style="fill:#00ff00"><path
           d="M 8,39 H 5 C 4.447,39 4,38.553 4,38 4,37.447 4.447,37 5,37 h 3 c 0.553,0 1,0.447 1,1 0,0.553 -0.447,1 -1,1 z"
           id="path34"
           inkscape:connector-curvature="0"
           style="fill:#00ff00" /></g><g
         id="g40"
         style="fill:#00ff00"><path
           d="M 8,47 H 5 C 4.447,47 4,46.553 4,46 4,45.447 4.447,45 5,45 h 3 c 0.553,0 1,0.447 1,1 0,0.553 -0.447,1 -1,1 z"
           id="path38"
           inkscape:connector-curvature="0"
           style="fill:#00ff00" /></g><g
         id="g62"
         style="fill:#00ff00"><g
           id="g44"
           style="fill:#00ff00"><path
             d="m 21,17 h -5 c -0.553,0 -1,-0.448 -1,-1 v -4 c 0,-0.552 0.447,-1 1,-1 h 5 c 0.553,0 1,0.448 1,1 v 4 c 0,0.552 -0.447,1 -1,1 z m -4,-2 h 3 v -2 h -3 z"
             id="path42"
             inkscape:connector-curvature="0"
             style="fill:#00ff00" /></g><g
           id="g48"
           style="fill:#00ff00"><path
             d="M 40,25 H 16 c -0.553,0 -1,-0.448 -1,-1 v -4 c 0,-0.552 0.447,-1 1,-1 h 24 c 0.553,0 1,0.448 1,1 v 4 c 0,0.552 -0.447,1 -1,1 z M 17,23 H 39 V 21 H 17 Z"
             id="path46"
             inkscape:connector-curvature="0"
             style="fill:#00ff00" /></g><g
           id="g52"
           style="fill:#00ff00"><path
             d="M 46,33 H 28 c -0.553,0 -1,-0.448 -1,-1 v -4 c 0,-0.552 0.447,-1 1,-1 h 18 c 0.553,0 1,0.448 1,1 v 4 c 0,0.552 -0.447,1 -1,1 z M 29,31 H 45 V 29 H 29 Z"
             id="path50"
             inkscape:connector-curvature="0"
             style="fill:#00ff00" /></g><g
           id="g56"
           style="fill:#00ff00"><path
             d="M 54,41 H 28 c -0.553,0 -1,-0.447 -1,-1 v -4 c 0,-0.553 0.447,-1 1,-1 h 26 c 0.553,0 1,0.447 1,1 v 4 c 0,0.553 -0.447,1 -1,1 z M 29,39 H 53 V 37 H 29 Z"
             id="path54"
             inkscape:connector-curvature="0"
             style="fill:#00ff00" /></g><g
           id="g60"
           style="fill:#00ff00"><path
             d="M 59,49 H 46 c -0.553,0 -1,-0.447 -1,-1 v -4 c 0,-0.553 0.447,-1 1,-1 h 13 c 0.553,0 1,0.447 1,1 v 4 c 0,0.553 -0.447,1 -1,1 z M 47,47 H 58 V 45 H 47 Z"
             id="path58"
             inkscape:connector-curvature="0"
             style="fill:#00ff00" /></g></g></g></g></svg>