<?xml version="1.0" encoding="UTF-8" standalone="no"?>
<svg
   xmlns:dc="http://purl.org/dc/elements/1.1/"
   xmlns:cc="http://creativecommons.org/ns#"
   xmlns:rdf="http://www.w3.org/1999/02/22-rdf-syntax-ns#"
   xmlns:svg="http://www.w3.org/2000/svg"
   xmlns="http://www.w3.org/2000/svg"
   xmlns:sodipodi="http://sodipodi.sourceforge.net/DTD/sodipodi-0.dtd"
   xmlns:inkscape="http://www.inkscape.org/namespaces/inkscape"
   data-name="Layer 1"
   viewBox="0 0 80 80"
   x="0px"
   y="0px"
   version="1.1"
   id="svg6"
   sodipodi:docname="sousbois.svg"
   inkscape:version="0.92.3 (2405546, 2018-03-11)">
  <metadata
     id="metadata12">
    <rdf:RDF>
      <cc:Work
         rdf:about="">
        <dc:format>image/svg+xml</dc:format>
        <dc:type
           rdf:resource="http://purl.org/dc/dcmitype/StillImage" />
        <dc:title>Artboard 1 copy 21</dc:title>
      </cc:Work>
    </rdf:RDF>
  </metadata>
  <defs
     id="defs10" />
  <sodipodi:namedview
     pagecolor="#ffffff"
     bordercolor="#666666"
     borderopacity="1"
     objecttolerance="10"
     gridtolerance="10"
     guidetolerance="10"
     inkscape:pageopacity="0"
     inkscape:pageshadow="2"
     inkscape:window-width="920"
     inkscape:window-height="480"
     id="namedview8"
     showgrid="false"
     inkscape:zoom="2.95"
     inkscape:cx="2.3728814"
     inkscape:cy="40"
     inkscape:window-x="0"
     inkscape:window-y="27"
     inkscape:window-maximized="0"
     inkscape:current-layer="svg6" />
  <title
     id="title2">Artboard 1 copy 21</title>
  <path
     d="M67.31,45.4A1,1,0,0,0,65.94,45a18.88,18.88,0,0,0-6.72,6.43,13.55,13.55,0,0,0-2.52-7.62A1,1,0,0,0,55.06,45a11.91,11.91,0,0,1,1.69,10.22,18.78,18.78,0,0,0-5.26-7.54,8.36,8.36,0,0,0-2.92-7.47,7.85,7.85,0,0,0,6.23-7.4,6.73,6.73,0,0,0-2.68-5.37,6.72,6.72,0,0,0-6.33-9,4,4,0,0,0-1,.08,6.73,6.73,0,0,0-5.12-2.37h0a6.73,6.73,0,0,0-5.11,2.36,6.6,6.6,0,0,0-1-.08h0a6.72,6.72,0,0,0-6.72,6.72,3.85,3.85,0,0,0,.27,1.59,8.51,8.51,0,0,0-1.64,1.52,8.3,8.3,0,0,0-1.42-.13h0a8.51,8.51,0,0,0-8.5,8.5,8.36,8.36,0,0,0,.58,3.08,8.51,8.51,0,0,0-3.58,6.92c0,4.46,3.57,8.54,8.3,9.48a14,14,0,0,0,10.2-2.29v8.31a1,1,0,0,0,2,0V53.94a12.67,12.67,0,0,0,7.6,2.42,15.65,15.65,0,0,0,2.57-.22,10.21,10.21,0,0,0,7.71-6.24,18.16,18.16,0,0,1,5.21,12.89,1,1,0,0,0,.95,1h.05a1,1,0,0,0,1-.95s0-.09,0-.18a1,1,0,0,0,.06-.37c0-.42-.41-10.31,8.74-15.58A1,1,0,0,0,67.31,45.4ZM28.86,25.16a4.72,4.72,0,0,1,4.72-4.72h0a4.77,4.77,0,0,1,1.16.15,1,1,0,0,0,1.07-.4,4.73,4.73,0,0,1,3.88-2h0a4.73,4.73,0,0,1,3.88,2,1,1,0,0,0,1.07.4,3.94,3.94,0,0,1,1.16-.15A4.72,4.72,0,0,1,50,27.35a1,1,0,0,0,.4,1.33,4.73,4.73,0,0,1,2.42,4.13,5.87,5.87,0,0,1-4.37,5.36,8.5,8.5,0,0,0-8.36-10h0a8.25,8.25,0,0,0-1.41.12,8.5,8.5,0,0,0-6.58-3.13h0a8.46,8.46,0,0,0-3.15.62A2.46,2.46,0,0,1,28.86,25.16Zm14,29a11,11,0,0,1-9.64-2.65L39,44.36a1,1,0,1,0-1.56-1.25L32,49.87,29.68,47.1,38.4,35.68a1,1,0,0,0-1.59-1.21l-2.91,3.8-2.65-2.87a1,1,0,1,0-1.47,1.35l2.88,3.13-4.32,5.65-4.15-4.93a1,1,0,1,0-1.53,1.29l8.13,9.66a12.15,12.15,0,0,1-9.56,2.63c-3.75-.75-6.69-4.06-6.69-7.52A6.51,6.51,0,0,1,17.9,41a1,1,0,0,0,.4-1.33,6.41,6.41,0,0,1-.73-3,6.51,6.51,0,0,1,6.5-6.5h0a6.44,6.44,0,0,1,1.59.21,1,1,0,0,0,1.07-.4,6.51,6.51,0,0,1,2-1.87,1,1,0,0,0,.17,0,1,1,0,0,0,.21-.17,6.48,6.48,0,0,1,2.95-.71h0A6.51,6.51,0,0,1,37.41,30a1,1,0,0,0,1.07.4,6.52,6.52,0,0,1,1.58-.2h0a6.49,6.49,0,0,1,5.76,9.49,1,1,0,0,0,.4,1.33,6.5,6.5,0,0,1,3.3,5.2c-.36-.24-.74-.48-1.13-.71a1,1,0,1,0-1,1.73,18,18,0,0,1,1.89,1.27A8.24,8.24,0,0,1,42.89,54.17Z"
     id="path4"
     style="fill:#008000" />
</svg>
